%FSLAX34Y34*%
G04 Gerber Fmt 3.4, Leading zero omitted, Abs format*
G04 (created by PCBNEW (2013-11-06 BZR 4440)-product) date Thu 14 Nov 2013 14:49:17 GMT*
%MOIN*%
G01*
G70*
G90*
G04 APERTURE LIST*
%ADD10C,0.005906*%
%ADD11R,0.055000X0.055000*%
%ADD12C,0.055000*%
%ADD13R,0.060000X0.060000*%
%ADD14C,0.060000*%
%ADD15C,0.035000*%
%ADD16C,0.010000*%
G04 APERTURE END LIST*
G54D10*
G54D11*
X49000Y-40000D03*
G54D12*
X50000Y-40000D03*
G54D11*
X53500Y-33500D03*
G54D12*
X54500Y-33500D03*
X55500Y-33500D03*
G54D13*
X51000Y-44000D03*
G54D14*
X52000Y-44000D03*
X53000Y-44000D03*
X54000Y-44000D03*
G54D13*
X51000Y-47000D03*
G54D14*
X52000Y-47000D03*
X53000Y-47000D03*
X54000Y-47000D03*
G54D13*
X51000Y-50000D03*
G54D14*
X52000Y-50000D03*
X53000Y-50000D03*
X54000Y-50000D03*
G54D13*
X51000Y-53000D03*
G54D14*
X52000Y-53000D03*
X53000Y-53000D03*
X54000Y-53000D03*
G54D12*
X61000Y-36000D03*
X61000Y-35000D03*
X49500Y-35500D03*
X49500Y-36500D03*
G54D11*
X54000Y-37500D03*
G54D12*
X54000Y-38500D03*
X54000Y-39500D03*
X54000Y-40500D03*
X57000Y-40500D03*
X57000Y-39500D03*
X57000Y-38500D03*
X57000Y-37500D03*
G54D15*
X52750Y-36250D03*
G54D16*
X56000Y-38500D02*
X57000Y-38500D01*
X55500Y-38000D02*
X56000Y-38500D01*
X55500Y-36750D02*
X55500Y-38000D01*
X54750Y-36000D02*
X55500Y-36750D01*
X53000Y-36000D02*
X54750Y-36000D01*
X52750Y-36250D02*
X53000Y-36000D01*
X55500Y-33500D02*
X57250Y-35250D01*
X57250Y-37250D02*
X57000Y-37500D01*
X57250Y-35250D02*
X57250Y-37250D01*
G54D10*
G36*
X62950Y-53950D02*
X61525Y-53950D01*
X61525Y-35896D01*
X61445Y-35703D01*
X61297Y-35555D01*
X61164Y-35499D01*
X61297Y-35445D01*
X61444Y-35297D01*
X61524Y-35104D01*
X61525Y-34896D01*
X61445Y-34703D01*
X61297Y-34555D01*
X61104Y-34475D01*
X60896Y-34474D01*
X60703Y-34554D01*
X60555Y-34702D01*
X60475Y-34895D01*
X60474Y-35103D01*
X60554Y-35297D01*
X60702Y-35444D01*
X60835Y-35500D01*
X60703Y-35554D01*
X60555Y-35702D01*
X60475Y-35895D01*
X60474Y-36103D01*
X60554Y-36297D01*
X60702Y-36444D01*
X60895Y-36524D01*
X61103Y-36525D01*
X61297Y-36445D01*
X61444Y-36297D01*
X61524Y-36104D01*
X61525Y-35896D01*
X61525Y-53950D01*
X57529Y-53950D01*
X57529Y-37575D01*
X57518Y-37367D01*
X57460Y-37227D01*
X57367Y-37202D01*
X57297Y-37273D01*
X57297Y-37132D01*
X57272Y-37039D01*
X57075Y-36970D01*
X56867Y-36981D01*
X56727Y-37039D01*
X56702Y-37132D01*
X57000Y-37429D01*
X57297Y-37132D01*
X57297Y-37273D01*
X57070Y-37500D01*
X57367Y-37797D01*
X57460Y-37772D01*
X57529Y-37575D01*
X57529Y-53950D01*
X57525Y-53950D01*
X57525Y-40396D01*
X57445Y-40203D01*
X57297Y-40055D01*
X57164Y-39999D01*
X57297Y-39945D01*
X57444Y-39797D01*
X57524Y-39604D01*
X57525Y-39396D01*
X57445Y-39203D01*
X57297Y-39055D01*
X57164Y-38999D01*
X57297Y-38945D01*
X57444Y-38797D01*
X57524Y-38604D01*
X57525Y-38396D01*
X57445Y-38203D01*
X57297Y-38055D01*
X57171Y-38002D01*
X57272Y-37960D01*
X57297Y-37867D01*
X57000Y-37570D01*
X56929Y-37641D01*
X56929Y-37500D01*
X56632Y-37202D01*
X56539Y-37227D01*
X56470Y-37424D01*
X56481Y-37632D01*
X56539Y-37772D01*
X56632Y-37797D01*
X56929Y-37500D01*
X56929Y-37641D01*
X56702Y-37867D01*
X56727Y-37960D01*
X56837Y-37999D01*
X56703Y-38054D01*
X56557Y-38200D01*
X56124Y-38200D01*
X56029Y-38105D01*
X56029Y-33575D01*
X56018Y-33367D01*
X55960Y-33227D01*
X55867Y-33202D01*
X55797Y-33273D01*
X55797Y-33132D01*
X55772Y-33039D01*
X55575Y-32970D01*
X55367Y-32981D01*
X55227Y-33039D01*
X55202Y-33132D01*
X55500Y-33429D01*
X55797Y-33132D01*
X55797Y-33273D01*
X55570Y-33500D01*
X55867Y-33797D01*
X55960Y-33772D01*
X56029Y-33575D01*
X56029Y-38105D01*
X55800Y-37875D01*
X55800Y-36750D01*
X55797Y-36735D01*
X55797Y-33867D01*
X55500Y-33570D01*
X55429Y-33641D01*
X55429Y-33500D01*
X55132Y-33202D01*
X55039Y-33227D01*
X55000Y-33337D01*
X54945Y-33203D01*
X54797Y-33055D01*
X54604Y-32975D01*
X54396Y-32974D01*
X54203Y-33054D01*
X54055Y-33202D01*
X54025Y-33274D01*
X54025Y-33175D01*
X53986Y-33083D01*
X53916Y-33013D01*
X53824Y-32975D01*
X53725Y-32975D01*
X53175Y-32975D01*
X53083Y-33013D01*
X53013Y-33083D01*
X52975Y-33175D01*
X52975Y-33274D01*
X52975Y-33824D01*
X53013Y-33916D01*
X53083Y-33986D01*
X53175Y-34025D01*
X53274Y-34025D01*
X53824Y-34025D01*
X53916Y-33986D01*
X53986Y-33916D01*
X54025Y-33824D01*
X54025Y-33725D01*
X54025Y-33725D01*
X54054Y-33797D01*
X54202Y-33944D01*
X54395Y-34024D01*
X54603Y-34025D01*
X54797Y-33945D01*
X54944Y-33797D01*
X54997Y-33671D01*
X55039Y-33772D01*
X55132Y-33797D01*
X55429Y-33500D01*
X55429Y-33641D01*
X55202Y-33867D01*
X55227Y-33960D01*
X55424Y-34029D01*
X55632Y-34018D01*
X55772Y-33960D01*
X55797Y-33867D01*
X55797Y-36735D01*
X55777Y-36635D01*
X55777Y-36635D01*
X55712Y-36537D01*
X54962Y-35787D01*
X54864Y-35722D01*
X54750Y-35700D01*
X53000Y-35700D01*
X52885Y-35722D01*
X52846Y-35748D01*
X52787Y-35787D01*
X52750Y-35825D01*
X52665Y-35824D01*
X52509Y-35889D01*
X52389Y-36008D01*
X52325Y-36165D01*
X52324Y-36334D01*
X52389Y-36490D01*
X52508Y-36610D01*
X52665Y-36674D01*
X52834Y-36675D01*
X52990Y-36610D01*
X53110Y-36491D01*
X53174Y-36334D01*
X53174Y-36300D01*
X54625Y-36300D01*
X55200Y-36874D01*
X55200Y-38000D01*
X55222Y-38114D01*
X55287Y-38212D01*
X55787Y-38712D01*
X55787Y-38712D01*
X55885Y-38777D01*
X56000Y-38800D01*
X56557Y-38800D01*
X56702Y-38944D01*
X56835Y-39000D01*
X56703Y-39054D01*
X56555Y-39202D01*
X56475Y-39395D01*
X56474Y-39603D01*
X56554Y-39797D01*
X56702Y-39944D01*
X56835Y-40000D01*
X56703Y-40054D01*
X56555Y-40202D01*
X56475Y-40395D01*
X56474Y-40603D01*
X56554Y-40797D01*
X56702Y-40944D01*
X56895Y-41024D01*
X57103Y-41025D01*
X57297Y-40945D01*
X57444Y-40797D01*
X57524Y-40604D01*
X57525Y-40396D01*
X57525Y-53950D01*
X54550Y-53950D01*
X54550Y-52891D01*
X54550Y-49891D01*
X54550Y-46891D01*
X54550Y-43891D01*
X54525Y-43830D01*
X54525Y-40396D01*
X54445Y-40203D01*
X54297Y-40055D01*
X54164Y-39999D01*
X54297Y-39945D01*
X54444Y-39797D01*
X54524Y-39604D01*
X54525Y-39396D01*
X54445Y-39203D01*
X54297Y-39055D01*
X54164Y-38999D01*
X54297Y-38945D01*
X54444Y-38797D01*
X54524Y-38604D01*
X54525Y-38396D01*
X54445Y-38203D01*
X54297Y-38055D01*
X54225Y-38025D01*
X54324Y-38025D01*
X54416Y-37986D01*
X54486Y-37916D01*
X54525Y-37824D01*
X54525Y-37725D01*
X54525Y-37175D01*
X54486Y-37083D01*
X54416Y-37013D01*
X54324Y-36975D01*
X54225Y-36975D01*
X53675Y-36975D01*
X53583Y-37013D01*
X53513Y-37083D01*
X53475Y-37175D01*
X53475Y-37274D01*
X53475Y-37824D01*
X53513Y-37916D01*
X53583Y-37986D01*
X53675Y-38025D01*
X53774Y-38025D01*
X53774Y-38025D01*
X53703Y-38054D01*
X53555Y-38202D01*
X53475Y-38395D01*
X53474Y-38603D01*
X53554Y-38797D01*
X53702Y-38944D01*
X53835Y-39000D01*
X53703Y-39054D01*
X53555Y-39202D01*
X53475Y-39395D01*
X53474Y-39603D01*
X53554Y-39797D01*
X53702Y-39944D01*
X53835Y-40000D01*
X53703Y-40054D01*
X53555Y-40202D01*
X53475Y-40395D01*
X53474Y-40603D01*
X53554Y-40797D01*
X53702Y-40944D01*
X53895Y-41024D01*
X54103Y-41025D01*
X54297Y-40945D01*
X54444Y-40797D01*
X54524Y-40604D01*
X54525Y-40396D01*
X54525Y-43830D01*
X54466Y-43688D01*
X54311Y-43534D01*
X54109Y-43450D01*
X53891Y-43449D01*
X53688Y-43533D01*
X53534Y-43688D01*
X53500Y-43769D01*
X53466Y-43688D01*
X53311Y-43534D01*
X53109Y-43450D01*
X52891Y-43449D01*
X52688Y-43533D01*
X52534Y-43688D01*
X52500Y-43769D01*
X52466Y-43688D01*
X52311Y-43534D01*
X52109Y-43450D01*
X51891Y-43449D01*
X51688Y-43533D01*
X51550Y-43672D01*
X51550Y-43650D01*
X51511Y-43558D01*
X51441Y-43488D01*
X51349Y-43450D01*
X51250Y-43450D01*
X50650Y-43450D01*
X50558Y-43488D01*
X50525Y-43521D01*
X50525Y-39896D01*
X50445Y-39703D01*
X50297Y-39555D01*
X50104Y-39475D01*
X50025Y-39475D01*
X50025Y-36396D01*
X49945Y-36203D01*
X49797Y-36055D01*
X49664Y-35999D01*
X49797Y-35945D01*
X49944Y-35797D01*
X50024Y-35604D01*
X50025Y-35396D01*
X49945Y-35203D01*
X49797Y-35055D01*
X49604Y-34975D01*
X49396Y-34974D01*
X49203Y-35054D01*
X49055Y-35202D01*
X48975Y-35395D01*
X48974Y-35603D01*
X49054Y-35797D01*
X49202Y-35944D01*
X49335Y-36000D01*
X49203Y-36054D01*
X49055Y-36202D01*
X48975Y-36395D01*
X48974Y-36603D01*
X49054Y-36797D01*
X49202Y-36944D01*
X49395Y-37024D01*
X49603Y-37025D01*
X49797Y-36945D01*
X49944Y-36797D01*
X50024Y-36604D01*
X50025Y-36396D01*
X50025Y-39475D01*
X49896Y-39474D01*
X49703Y-39554D01*
X49555Y-39702D01*
X49525Y-39774D01*
X49525Y-39675D01*
X49486Y-39583D01*
X49416Y-39513D01*
X49324Y-39475D01*
X49225Y-39475D01*
X48675Y-39475D01*
X48583Y-39513D01*
X48513Y-39583D01*
X48475Y-39675D01*
X48475Y-39774D01*
X48475Y-40324D01*
X48513Y-40416D01*
X48583Y-40486D01*
X48675Y-40525D01*
X48774Y-40525D01*
X49324Y-40525D01*
X49416Y-40486D01*
X49486Y-40416D01*
X49525Y-40324D01*
X49525Y-40225D01*
X49525Y-40225D01*
X49554Y-40297D01*
X49702Y-40444D01*
X49895Y-40524D01*
X50103Y-40525D01*
X50297Y-40445D01*
X50444Y-40297D01*
X50524Y-40104D01*
X50525Y-39896D01*
X50525Y-43521D01*
X50488Y-43558D01*
X50450Y-43650D01*
X50450Y-43749D01*
X50450Y-44349D01*
X50488Y-44441D01*
X50558Y-44511D01*
X50650Y-44550D01*
X50749Y-44550D01*
X51349Y-44550D01*
X51441Y-44511D01*
X51511Y-44441D01*
X51550Y-44349D01*
X51550Y-44327D01*
X51688Y-44465D01*
X51890Y-44549D01*
X52108Y-44550D01*
X52311Y-44466D01*
X52465Y-44311D01*
X52499Y-44230D01*
X52533Y-44311D01*
X52688Y-44465D01*
X52890Y-44549D01*
X53108Y-44550D01*
X53311Y-44466D01*
X53465Y-44311D01*
X53499Y-44230D01*
X53533Y-44311D01*
X53688Y-44465D01*
X53890Y-44549D01*
X54108Y-44550D01*
X54311Y-44466D01*
X54465Y-44311D01*
X54549Y-44109D01*
X54550Y-43891D01*
X54550Y-46891D01*
X54466Y-46688D01*
X54311Y-46534D01*
X54109Y-46450D01*
X53891Y-46449D01*
X53688Y-46533D01*
X53534Y-46688D01*
X53500Y-46769D01*
X53466Y-46688D01*
X53311Y-46534D01*
X53109Y-46450D01*
X52891Y-46449D01*
X52688Y-46533D01*
X52534Y-46688D01*
X52500Y-46769D01*
X52466Y-46688D01*
X52311Y-46534D01*
X52109Y-46450D01*
X51891Y-46449D01*
X51688Y-46533D01*
X51550Y-46672D01*
X51550Y-46650D01*
X51511Y-46558D01*
X51441Y-46488D01*
X51349Y-46450D01*
X51250Y-46450D01*
X50650Y-46450D01*
X50558Y-46488D01*
X50488Y-46558D01*
X50450Y-46650D01*
X50450Y-46749D01*
X50450Y-47349D01*
X50488Y-47441D01*
X50558Y-47511D01*
X50650Y-47550D01*
X50749Y-47550D01*
X51349Y-47550D01*
X51441Y-47511D01*
X51511Y-47441D01*
X51550Y-47349D01*
X51550Y-47327D01*
X51688Y-47465D01*
X51890Y-47549D01*
X52108Y-47550D01*
X52311Y-47466D01*
X52465Y-47311D01*
X52499Y-47230D01*
X52533Y-47311D01*
X52688Y-47465D01*
X52890Y-47549D01*
X53108Y-47550D01*
X53311Y-47466D01*
X53465Y-47311D01*
X53499Y-47230D01*
X53533Y-47311D01*
X53688Y-47465D01*
X53890Y-47549D01*
X54108Y-47550D01*
X54311Y-47466D01*
X54465Y-47311D01*
X54549Y-47109D01*
X54550Y-46891D01*
X54550Y-49891D01*
X54466Y-49688D01*
X54311Y-49534D01*
X54109Y-49450D01*
X53891Y-49449D01*
X53688Y-49533D01*
X53534Y-49688D01*
X53500Y-49769D01*
X53466Y-49688D01*
X53311Y-49534D01*
X53109Y-49450D01*
X52891Y-49449D01*
X52688Y-49533D01*
X52534Y-49688D01*
X52500Y-49769D01*
X52466Y-49688D01*
X52311Y-49534D01*
X52109Y-49450D01*
X51891Y-49449D01*
X51688Y-49533D01*
X51550Y-49672D01*
X51550Y-49650D01*
X51511Y-49558D01*
X51441Y-49488D01*
X51349Y-49450D01*
X51250Y-49450D01*
X50650Y-49450D01*
X50558Y-49488D01*
X50488Y-49558D01*
X50450Y-49650D01*
X50450Y-49749D01*
X50450Y-50349D01*
X50488Y-50441D01*
X50558Y-50511D01*
X50650Y-50550D01*
X50749Y-50550D01*
X51349Y-50550D01*
X51441Y-50511D01*
X51511Y-50441D01*
X51550Y-50349D01*
X51550Y-50327D01*
X51688Y-50465D01*
X51890Y-50549D01*
X52108Y-50550D01*
X52311Y-50466D01*
X52465Y-50311D01*
X52499Y-50230D01*
X52533Y-50311D01*
X52688Y-50465D01*
X52890Y-50549D01*
X53108Y-50550D01*
X53311Y-50466D01*
X53465Y-50311D01*
X53499Y-50230D01*
X53533Y-50311D01*
X53688Y-50465D01*
X53890Y-50549D01*
X54108Y-50550D01*
X54311Y-50466D01*
X54465Y-50311D01*
X54549Y-50109D01*
X54550Y-49891D01*
X54550Y-52891D01*
X54466Y-52688D01*
X54311Y-52534D01*
X54109Y-52450D01*
X53891Y-52449D01*
X53688Y-52533D01*
X53534Y-52688D01*
X53500Y-52769D01*
X53466Y-52688D01*
X53311Y-52534D01*
X53109Y-52450D01*
X52891Y-52449D01*
X52688Y-52533D01*
X52534Y-52688D01*
X52500Y-52769D01*
X52466Y-52688D01*
X52311Y-52534D01*
X52109Y-52450D01*
X51891Y-52449D01*
X51688Y-52533D01*
X51550Y-52672D01*
X51550Y-52650D01*
X51511Y-52558D01*
X51441Y-52488D01*
X51349Y-52450D01*
X51250Y-52450D01*
X50650Y-52450D01*
X50558Y-52488D01*
X50488Y-52558D01*
X50450Y-52650D01*
X50450Y-52749D01*
X50450Y-53349D01*
X50488Y-53441D01*
X50558Y-53511D01*
X50650Y-53550D01*
X50749Y-53550D01*
X51349Y-53550D01*
X51441Y-53511D01*
X51511Y-53441D01*
X51550Y-53349D01*
X51550Y-53327D01*
X51688Y-53465D01*
X51890Y-53549D01*
X52108Y-53550D01*
X52311Y-53466D01*
X52465Y-53311D01*
X52499Y-53230D01*
X52533Y-53311D01*
X52688Y-53465D01*
X52890Y-53549D01*
X53108Y-53550D01*
X53311Y-53466D01*
X53465Y-53311D01*
X53499Y-53230D01*
X53533Y-53311D01*
X53688Y-53465D01*
X53890Y-53549D01*
X54108Y-53550D01*
X54311Y-53466D01*
X54465Y-53311D01*
X54549Y-53109D01*
X54550Y-52891D01*
X54550Y-53950D01*
X47550Y-53950D01*
X47550Y-31550D01*
X62950Y-31550D01*
X62950Y-53950D01*
X62950Y-53950D01*
G37*
G54D16*
X62950Y-53950D02*
X61525Y-53950D01*
X61525Y-35896D01*
X61445Y-35703D01*
X61297Y-35555D01*
X61164Y-35499D01*
X61297Y-35445D01*
X61444Y-35297D01*
X61524Y-35104D01*
X61525Y-34896D01*
X61445Y-34703D01*
X61297Y-34555D01*
X61104Y-34475D01*
X60896Y-34474D01*
X60703Y-34554D01*
X60555Y-34702D01*
X60475Y-34895D01*
X60474Y-35103D01*
X60554Y-35297D01*
X60702Y-35444D01*
X60835Y-35500D01*
X60703Y-35554D01*
X60555Y-35702D01*
X60475Y-35895D01*
X60474Y-36103D01*
X60554Y-36297D01*
X60702Y-36444D01*
X60895Y-36524D01*
X61103Y-36525D01*
X61297Y-36445D01*
X61444Y-36297D01*
X61524Y-36104D01*
X61525Y-35896D01*
X61525Y-53950D01*
X57529Y-53950D01*
X57529Y-37575D01*
X57518Y-37367D01*
X57460Y-37227D01*
X57367Y-37202D01*
X57297Y-37273D01*
X57297Y-37132D01*
X57272Y-37039D01*
X57075Y-36970D01*
X56867Y-36981D01*
X56727Y-37039D01*
X56702Y-37132D01*
X57000Y-37429D01*
X57297Y-37132D01*
X57297Y-37273D01*
X57070Y-37500D01*
X57367Y-37797D01*
X57460Y-37772D01*
X57529Y-37575D01*
X57529Y-53950D01*
X57525Y-53950D01*
X57525Y-40396D01*
X57445Y-40203D01*
X57297Y-40055D01*
X57164Y-39999D01*
X57297Y-39945D01*
X57444Y-39797D01*
X57524Y-39604D01*
X57525Y-39396D01*
X57445Y-39203D01*
X57297Y-39055D01*
X57164Y-38999D01*
X57297Y-38945D01*
X57444Y-38797D01*
X57524Y-38604D01*
X57525Y-38396D01*
X57445Y-38203D01*
X57297Y-38055D01*
X57171Y-38002D01*
X57272Y-37960D01*
X57297Y-37867D01*
X57000Y-37570D01*
X56929Y-37641D01*
X56929Y-37500D01*
X56632Y-37202D01*
X56539Y-37227D01*
X56470Y-37424D01*
X56481Y-37632D01*
X56539Y-37772D01*
X56632Y-37797D01*
X56929Y-37500D01*
X56929Y-37641D01*
X56702Y-37867D01*
X56727Y-37960D01*
X56837Y-37999D01*
X56703Y-38054D01*
X56557Y-38200D01*
X56124Y-38200D01*
X56029Y-38105D01*
X56029Y-33575D01*
X56018Y-33367D01*
X55960Y-33227D01*
X55867Y-33202D01*
X55797Y-33273D01*
X55797Y-33132D01*
X55772Y-33039D01*
X55575Y-32970D01*
X55367Y-32981D01*
X55227Y-33039D01*
X55202Y-33132D01*
X55500Y-33429D01*
X55797Y-33132D01*
X55797Y-33273D01*
X55570Y-33500D01*
X55867Y-33797D01*
X55960Y-33772D01*
X56029Y-33575D01*
X56029Y-38105D01*
X55800Y-37875D01*
X55800Y-36750D01*
X55797Y-36735D01*
X55797Y-33867D01*
X55500Y-33570D01*
X55429Y-33641D01*
X55429Y-33500D01*
X55132Y-33202D01*
X55039Y-33227D01*
X55000Y-33337D01*
X54945Y-33203D01*
X54797Y-33055D01*
X54604Y-32975D01*
X54396Y-32974D01*
X54203Y-33054D01*
X54055Y-33202D01*
X54025Y-33274D01*
X54025Y-33175D01*
X53986Y-33083D01*
X53916Y-33013D01*
X53824Y-32975D01*
X53725Y-32975D01*
X53175Y-32975D01*
X53083Y-33013D01*
X53013Y-33083D01*
X52975Y-33175D01*
X52975Y-33274D01*
X52975Y-33824D01*
X53013Y-33916D01*
X53083Y-33986D01*
X53175Y-34025D01*
X53274Y-34025D01*
X53824Y-34025D01*
X53916Y-33986D01*
X53986Y-33916D01*
X54025Y-33824D01*
X54025Y-33725D01*
X54025Y-33725D01*
X54054Y-33797D01*
X54202Y-33944D01*
X54395Y-34024D01*
X54603Y-34025D01*
X54797Y-33945D01*
X54944Y-33797D01*
X54997Y-33671D01*
X55039Y-33772D01*
X55132Y-33797D01*
X55429Y-33500D01*
X55429Y-33641D01*
X55202Y-33867D01*
X55227Y-33960D01*
X55424Y-34029D01*
X55632Y-34018D01*
X55772Y-33960D01*
X55797Y-33867D01*
X55797Y-36735D01*
X55777Y-36635D01*
X55777Y-36635D01*
X55712Y-36537D01*
X54962Y-35787D01*
X54864Y-35722D01*
X54750Y-35700D01*
X53000Y-35700D01*
X52885Y-35722D01*
X52846Y-35748D01*
X52787Y-35787D01*
X52750Y-35825D01*
X52665Y-35824D01*
X52509Y-35889D01*
X52389Y-36008D01*
X52325Y-36165D01*
X52324Y-36334D01*
X52389Y-36490D01*
X52508Y-36610D01*
X52665Y-36674D01*
X52834Y-36675D01*
X52990Y-36610D01*
X53110Y-36491D01*
X53174Y-36334D01*
X53174Y-36300D01*
X54625Y-36300D01*
X55200Y-36874D01*
X55200Y-38000D01*
X55222Y-38114D01*
X55287Y-38212D01*
X55787Y-38712D01*
X55787Y-38712D01*
X55885Y-38777D01*
X56000Y-38800D01*
X56557Y-38800D01*
X56702Y-38944D01*
X56835Y-39000D01*
X56703Y-39054D01*
X56555Y-39202D01*
X56475Y-39395D01*
X56474Y-39603D01*
X56554Y-39797D01*
X56702Y-39944D01*
X56835Y-40000D01*
X56703Y-40054D01*
X56555Y-40202D01*
X56475Y-40395D01*
X56474Y-40603D01*
X56554Y-40797D01*
X56702Y-40944D01*
X56895Y-41024D01*
X57103Y-41025D01*
X57297Y-40945D01*
X57444Y-40797D01*
X57524Y-40604D01*
X57525Y-40396D01*
X57525Y-53950D01*
X54550Y-53950D01*
X54550Y-52891D01*
X54550Y-49891D01*
X54550Y-46891D01*
X54550Y-43891D01*
X54525Y-43830D01*
X54525Y-40396D01*
X54445Y-40203D01*
X54297Y-40055D01*
X54164Y-39999D01*
X54297Y-39945D01*
X54444Y-39797D01*
X54524Y-39604D01*
X54525Y-39396D01*
X54445Y-39203D01*
X54297Y-39055D01*
X54164Y-38999D01*
X54297Y-38945D01*
X54444Y-38797D01*
X54524Y-38604D01*
X54525Y-38396D01*
X54445Y-38203D01*
X54297Y-38055D01*
X54225Y-38025D01*
X54324Y-38025D01*
X54416Y-37986D01*
X54486Y-37916D01*
X54525Y-37824D01*
X54525Y-37725D01*
X54525Y-37175D01*
X54486Y-37083D01*
X54416Y-37013D01*
X54324Y-36975D01*
X54225Y-36975D01*
X53675Y-36975D01*
X53583Y-37013D01*
X53513Y-37083D01*
X53475Y-37175D01*
X53475Y-37274D01*
X53475Y-37824D01*
X53513Y-37916D01*
X53583Y-37986D01*
X53675Y-38025D01*
X53774Y-38025D01*
X53774Y-38025D01*
X53703Y-38054D01*
X53555Y-38202D01*
X53475Y-38395D01*
X53474Y-38603D01*
X53554Y-38797D01*
X53702Y-38944D01*
X53835Y-39000D01*
X53703Y-39054D01*
X53555Y-39202D01*
X53475Y-39395D01*
X53474Y-39603D01*
X53554Y-39797D01*
X53702Y-39944D01*
X53835Y-40000D01*
X53703Y-40054D01*
X53555Y-40202D01*
X53475Y-40395D01*
X53474Y-40603D01*
X53554Y-40797D01*
X53702Y-40944D01*
X53895Y-41024D01*
X54103Y-41025D01*
X54297Y-40945D01*
X54444Y-40797D01*
X54524Y-40604D01*
X54525Y-40396D01*
X54525Y-43830D01*
X54466Y-43688D01*
X54311Y-43534D01*
X54109Y-43450D01*
X53891Y-43449D01*
X53688Y-43533D01*
X53534Y-43688D01*
X53500Y-43769D01*
X53466Y-43688D01*
X53311Y-43534D01*
X53109Y-43450D01*
X52891Y-43449D01*
X52688Y-43533D01*
X52534Y-43688D01*
X52500Y-43769D01*
X52466Y-43688D01*
X52311Y-43534D01*
X52109Y-43450D01*
X51891Y-43449D01*
X51688Y-43533D01*
X51550Y-43672D01*
X51550Y-43650D01*
X51511Y-43558D01*
X51441Y-43488D01*
X51349Y-43450D01*
X51250Y-43450D01*
X50650Y-43450D01*
X50558Y-43488D01*
X50525Y-43521D01*
X50525Y-39896D01*
X50445Y-39703D01*
X50297Y-39555D01*
X50104Y-39475D01*
X50025Y-39475D01*
X50025Y-36396D01*
X49945Y-36203D01*
X49797Y-36055D01*
X49664Y-35999D01*
X49797Y-35945D01*
X49944Y-35797D01*
X50024Y-35604D01*
X50025Y-35396D01*
X49945Y-35203D01*
X49797Y-35055D01*
X49604Y-34975D01*
X49396Y-34974D01*
X49203Y-35054D01*
X49055Y-35202D01*
X48975Y-35395D01*
X48974Y-35603D01*
X49054Y-35797D01*
X49202Y-35944D01*
X49335Y-36000D01*
X49203Y-36054D01*
X49055Y-36202D01*
X48975Y-36395D01*
X48974Y-36603D01*
X49054Y-36797D01*
X49202Y-36944D01*
X49395Y-37024D01*
X49603Y-37025D01*
X49797Y-36945D01*
X49944Y-36797D01*
X50024Y-36604D01*
X50025Y-36396D01*
X50025Y-39475D01*
X49896Y-39474D01*
X49703Y-39554D01*
X49555Y-39702D01*
X49525Y-39774D01*
X49525Y-39675D01*
X49486Y-39583D01*
X49416Y-39513D01*
X49324Y-39475D01*
X49225Y-39475D01*
X48675Y-39475D01*
X48583Y-39513D01*
X48513Y-39583D01*
X48475Y-39675D01*
X48475Y-39774D01*
X48475Y-40324D01*
X48513Y-40416D01*
X48583Y-40486D01*
X48675Y-40525D01*
X48774Y-40525D01*
X49324Y-40525D01*
X49416Y-40486D01*
X49486Y-40416D01*
X49525Y-40324D01*
X49525Y-40225D01*
X49525Y-40225D01*
X49554Y-40297D01*
X49702Y-40444D01*
X49895Y-40524D01*
X50103Y-40525D01*
X50297Y-40445D01*
X50444Y-40297D01*
X50524Y-40104D01*
X50525Y-39896D01*
X50525Y-43521D01*
X50488Y-43558D01*
X50450Y-43650D01*
X50450Y-43749D01*
X50450Y-44349D01*
X50488Y-44441D01*
X50558Y-44511D01*
X50650Y-44550D01*
X50749Y-44550D01*
X51349Y-44550D01*
X51441Y-44511D01*
X51511Y-44441D01*
X51550Y-44349D01*
X51550Y-44327D01*
X51688Y-44465D01*
X51890Y-44549D01*
X52108Y-44550D01*
X52311Y-44466D01*
X52465Y-44311D01*
X52499Y-44230D01*
X52533Y-44311D01*
X52688Y-44465D01*
X52890Y-44549D01*
X53108Y-44550D01*
X53311Y-44466D01*
X53465Y-44311D01*
X53499Y-44230D01*
X53533Y-44311D01*
X53688Y-44465D01*
X53890Y-44549D01*
X54108Y-44550D01*
X54311Y-44466D01*
X54465Y-44311D01*
X54549Y-44109D01*
X54550Y-43891D01*
X54550Y-46891D01*
X54466Y-46688D01*
X54311Y-46534D01*
X54109Y-46450D01*
X53891Y-46449D01*
X53688Y-46533D01*
X53534Y-46688D01*
X53500Y-46769D01*
X53466Y-46688D01*
X53311Y-46534D01*
X53109Y-46450D01*
X52891Y-46449D01*
X52688Y-46533D01*
X52534Y-46688D01*
X52500Y-46769D01*
X52466Y-46688D01*
X52311Y-46534D01*
X52109Y-46450D01*
X51891Y-46449D01*
X51688Y-46533D01*
X51550Y-46672D01*
X51550Y-46650D01*
X51511Y-46558D01*
X51441Y-46488D01*
X51349Y-46450D01*
X51250Y-46450D01*
X50650Y-46450D01*
X50558Y-46488D01*
X50488Y-46558D01*
X50450Y-46650D01*
X50450Y-46749D01*
X50450Y-47349D01*
X50488Y-47441D01*
X50558Y-47511D01*
X50650Y-47550D01*
X50749Y-47550D01*
X51349Y-47550D01*
X51441Y-47511D01*
X51511Y-47441D01*
X51550Y-47349D01*
X51550Y-47327D01*
X51688Y-47465D01*
X51890Y-47549D01*
X52108Y-47550D01*
X52311Y-47466D01*
X52465Y-47311D01*
X52499Y-47230D01*
X52533Y-47311D01*
X52688Y-47465D01*
X52890Y-47549D01*
X53108Y-47550D01*
X53311Y-47466D01*
X53465Y-47311D01*
X53499Y-47230D01*
X53533Y-47311D01*
X53688Y-47465D01*
X53890Y-47549D01*
X54108Y-47550D01*
X54311Y-47466D01*
X54465Y-47311D01*
X54549Y-47109D01*
X54550Y-46891D01*
X54550Y-49891D01*
X54466Y-49688D01*
X54311Y-49534D01*
X54109Y-49450D01*
X53891Y-49449D01*
X53688Y-49533D01*
X53534Y-49688D01*
X53500Y-49769D01*
X53466Y-49688D01*
X53311Y-49534D01*
X53109Y-49450D01*
X52891Y-49449D01*
X52688Y-49533D01*
X52534Y-49688D01*
X52500Y-49769D01*
X52466Y-49688D01*
X52311Y-49534D01*
X52109Y-49450D01*
X51891Y-49449D01*
X51688Y-49533D01*
X51550Y-49672D01*
X51550Y-49650D01*
X51511Y-49558D01*
X51441Y-49488D01*
X51349Y-49450D01*
X51250Y-49450D01*
X50650Y-49450D01*
X50558Y-49488D01*
X50488Y-49558D01*
X50450Y-49650D01*
X50450Y-49749D01*
X50450Y-50349D01*
X50488Y-50441D01*
X50558Y-50511D01*
X50650Y-50550D01*
X50749Y-50550D01*
X51349Y-50550D01*
X51441Y-50511D01*
X51511Y-50441D01*
X51550Y-50349D01*
X51550Y-50327D01*
X51688Y-50465D01*
X51890Y-50549D01*
X52108Y-50550D01*
X52311Y-50466D01*
X52465Y-50311D01*
X52499Y-50230D01*
X52533Y-50311D01*
X52688Y-50465D01*
X52890Y-50549D01*
X53108Y-50550D01*
X53311Y-50466D01*
X53465Y-50311D01*
X53499Y-50230D01*
X53533Y-50311D01*
X53688Y-50465D01*
X53890Y-50549D01*
X54108Y-50550D01*
X54311Y-50466D01*
X54465Y-50311D01*
X54549Y-50109D01*
X54550Y-49891D01*
X54550Y-52891D01*
X54466Y-52688D01*
X54311Y-52534D01*
X54109Y-52450D01*
X53891Y-52449D01*
X53688Y-52533D01*
X53534Y-52688D01*
X53500Y-52769D01*
X53466Y-52688D01*
X53311Y-52534D01*
X53109Y-52450D01*
X52891Y-52449D01*
X52688Y-52533D01*
X52534Y-52688D01*
X52500Y-52769D01*
X52466Y-52688D01*
X52311Y-52534D01*
X52109Y-52450D01*
X51891Y-52449D01*
X51688Y-52533D01*
X51550Y-52672D01*
X51550Y-52650D01*
X51511Y-52558D01*
X51441Y-52488D01*
X51349Y-52450D01*
X51250Y-52450D01*
X50650Y-52450D01*
X50558Y-52488D01*
X50488Y-52558D01*
X50450Y-52650D01*
X50450Y-52749D01*
X50450Y-53349D01*
X50488Y-53441D01*
X50558Y-53511D01*
X50650Y-53550D01*
X50749Y-53550D01*
X51349Y-53550D01*
X51441Y-53511D01*
X51511Y-53441D01*
X51550Y-53349D01*
X51550Y-53327D01*
X51688Y-53465D01*
X51890Y-53549D01*
X52108Y-53550D01*
X52311Y-53466D01*
X52465Y-53311D01*
X52499Y-53230D01*
X52533Y-53311D01*
X52688Y-53465D01*
X52890Y-53549D01*
X53108Y-53550D01*
X53311Y-53466D01*
X53465Y-53311D01*
X53499Y-53230D01*
X53533Y-53311D01*
X53688Y-53465D01*
X53890Y-53549D01*
X54108Y-53550D01*
X54311Y-53466D01*
X54465Y-53311D01*
X54549Y-53109D01*
X54550Y-52891D01*
X54550Y-53950D01*
X47550Y-53950D01*
X47550Y-31550D01*
X62950Y-31550D01*
X62950Y-53950D01*
M02*
