M48
;DRILL file {Pcbnew (2013-11-06 BZR 4440)-product} date Thu 14 Nov 2013 16:04:31 GMT
;FORMAT={-:-/ absolute / inch / decimal}
FMAT,2
INCH,TZ
T1C0.025
T2C0.032
T3C0.040
%
G90
G05
M72
T1
X5.275Y-3.625
T2
X4.9Y-4.
X4.95Y-3.55
X4.95Y-3.65
X5.Y-4.
X5.35Y-3.35
X5.4Y-3.75
X5.4Y-3.85
X5.4Y-3.95
X5.4Y-4.05
X5.45Y-3.35
X5.55Y-3.35
X5.7Y-3.75
X5.7Y-3.85
X5.7Y-3.95
X5.7Y-4.05
X6.1Y-3.5
X6.1Y-3.6
T3
X5.1Y-4.4
X5.1Y-4.7
X5.1Y-5.
X5.1Y-5.3
X5.2Y-4.4
X5.2Y-4.7
X5.2Y-5.
X5.2Y-5.3
X5.3Y-4.4
X5.3Y-4.7
X5.3Y-5.
X5.3Y-5.3
X5.4Y-4.4
X5.4Y-4.7
X5.4Y-5.
X5.4Y-5.3
T0
M30
