%FSLAX34Y34*%
G04 Gerber Fmt 3.4, Leading zero omitted, Abs format*
G04 (created by PCBNEW (2013-11-19 BZR 4491)-product) date Thu 21 Nov 2013 01:11:00 GMT*
%MOIN*%
G01*
G70*
G90*
G04 APERTURE LIST*
%ADD10C,0.005906*%
%ADD11C,0.011811*%
%ADD12C,0.015748*%
%ADD13C,0.007874*%
%ADD14C,0.010000*%
%ADD15C,0.012000*%
%ADD16C,0.015000*%
%ADD17C,0.008000*%
%ADD18C,0.006000*%
%ADD19C,0.004921*%
%ADD20C,0.011250*%
G04 APERTURE END LIST*
G54D10*
X69685Y-65357D02*
X69685Y-77955D01*
X112205Y-77955D01*
X112205Y-65357D01*
X69685Y-65357D01*
X3937Y-3937D02*
X3937Y-78742D01*
X112992Y-78742D01*
X112992Y-3937D01*
X3937Y-3937D01*
X4724Y-4724D02*
X4724Y-77955D01*
X112205Y-77955D01*
X112205Y-4724D01*
X4724Y-4724D01*
X23622Y-4724D02*
X23622Y-3937D01*
X43307Y-4724D02*
X43307Y-3937D01*
X62992Y-4724D02*
X62992Y-3937D01*
X82677Y-4724D02*
X82677Y-3937D01*
X102362Y-4724D02*
X102362Y-3937D01*
X14169Y-4562D02*
X13877Y-4562D01*
X14023Y-4562D02*
X14023Y-4050D01*
X13974Y-4123D01*
X13925Y-4172D01*
X13877Y-4196D01*
X33562Y-4099D02*
X33586Y-4074D01*
X33635Y-4050D01*
X33757Y-4050D01*
X33805Y-4074D01*
X33830Y-4099D01*
X33854Y-4147D01*
X33854Y-4196D01*
X33830Y-4269D01*
X33537Y-4562D01*
X33854Y-4562D01*
X53222Y-4050D02*
X53539Y-4050D01*
X53368Y-4245D01*
X53442Y-4245D01*
X53490Y-4269D01*
X53515Y-4294D01*
X53539Y-4342D01*
X53539Y-4464D01*
X53515Y-4513D01*
X53490Y-4537D01*
X53442Y-4562D01*
X53295Y-4562D01*
X53247Y-4537D01*
X53222Y-4513D01*
X73175Y-4221D02*
X73175Y-4562D01*
X73053Y-4026D02*
X72932Y-4391D01*
X73248Y-4391D01*
X92885Y-4050D02*
X92641Y-4050D01*
X92617Y-4294D01*
X92641Y-4269D01*
X92690Y-4245D01*
X92812Y-4245D01*
X92860Y-4269D01*
X92885Y-4294D01*
X92909Y-4342D01*
X92909Y-4464D01*
X92885Y-4513D01*
X92860Y-4537D01*
X92812Y-4562D01*
X92690Y-4562D01*
X92641Y-4537D01*
X92617Y-4513D01*
X112545Y-4050D02*
X112448Y-4050D01*
X112399Y-4074D01*
X112375Y-4099D01*
X112326Y-4172D01*
X112302Y-4269D01*
X112302Y-4464D01*
X112326Y-4513D01*
X112350Y-4537D01*
X112399Y-4562D01*
X112497Y-4562D01*
X112545Y-4537D01*
X112570Y-4513D01*
X112594Y-4464D01*
X112594Y-4342D01*
X112570Y-4294D01*
X112545Y-4269D01*
X112497Y-4245D01*
X112399Y-4245D01*
X112350Y-4269D01*
X112326Y-4294D01*
X112302Y-4342D01*
X23622Y-77955D02*
X23622Y-78742D01*
X43307Y-77955D02*
X43307Y-78742D01*
X62992Y-77955D02*
X62992Y-78742D01*
X82677Y-77955D02*
X82677Y-78742D01*
X102362Y-77955D02*
X102362Y-78742D01*
X14169Y-78580D02*
X13877Y-78580D01*
X14023Y-78580D02*
X14023Y-78069D01*
X13974Y-78142D01*
X13925Y-78190D01*
X13877Y-78215D01*
X33562Y-78117D02*
X33586Y-78093D01*
X33635Y-78069D01*
X33757Y-78069D01*
X33805Y-78093D01*
X33830Y-78117D01*
X33854Y-78166D01*
X33854Y-78215D01*
X33830Y-78288D01*
X33537Y-78580D01*
X33854Y-78580D01*
X53222Y-78069D02*
X53539Y-78069D01*
X53368Y-78263D01*
X53442Y-78263D01*
X53490Y-78288D01*
X53515Y-78312D01*
X53539Y-78361D01*
X53539Y-78483D01*
X53515Y-78532D01*
X53490Y-78556D01*
X53442Y-78580D01*
X53295Y-78580D01*
X53247Y-78556D01*
X53222Y-78532D01*
X73175Y-78239D02*
X73175Y-78580D01*
X73053Y-78044D02*
X72932Y-78410D01*
X73248Y-78410D01*
X92885Y-78069D02*
X92641Y-78069D01*
X92617Y-78312D01*
X92641Y-78288D01*
X92690Y-78263D01*
X92812Y-78263D01*
X92860Y-78288D01*
X92885Y-78312D01*
X92909Y-78361D01*
X92909Y-78483D01*
X92885Y-78532D01*
X92860Y-78556D01*
X92812Y-78580D01*
X92690Y-78580D01*
X92641Y-78556D01*
X92617Y-78532D01*
X112545Y-78069D02*
X112448Y-78069D01*
X112399Y-78093D01*
X112375Y-78117D01*
X112326Y-78190D01*
X112302Y-78288D01*
X112302Y-78483D01*
X112326Y-78532D01*
X112350Y-78556D01*
X112399Y-78580D01*
X112497Y-78580D01*
X112545Y-78556D01*
X112570Y-78532D01*
X112594Y-78483D01*
X112594Y-78361D01*
X112570Y-78312D01*
X112545Y-78288D01*
X112497Y-78263D01*
X112399Y-78263D01*
X112350Y-78288D01*
X112326Y-78312D01*
X112302Y-78361D01*
X3937Y-23622D02*
X4724Y-23622D01*
X3937Y-43307D02*
X4724Y-43307D01*
X3937Y-62992D02*
X4724Y-62992D01*
X4208Y-13864D02*
X4452Y-13864D01*
X4160Y-14011D02*
X4330Y-13499D01*
X4501Y-14011D01*
X4367Y-33428D02*
X4440Y-33452D01*
X4464Y-33476D01*
X4489Y-33525D01*
X4489Y-33598D01*
X4464Y-33647D01*
X4440Y-33671D01*
X4391Y-33696D01*
X4196Y-33696D01*
X4196Y-33184D01*
X4367Y-33184D01*
X4416Y-33208D01*
X4440Y-33233D01*
X4464Y-33281D01*
X4464Y-33330D01*
X4440Y-33379D01*
X4416Y-33403D01*
X4367Y-33428D01*
X4196Y-33428D01*
X4489Y-53332D02*
X4464Y-53356D01*
X4391Y-53381D01*
X4342Y-53381D01*
X4269Y-53356D01*
X4221Y-53308D01*
X4196Y-53259D01*
X4172Y-53161D01*
X4172Y-53088D01*
X4196Y-52991D01*
X4221Y-52942D01*
X4269Y-52893D01*
X4342Y-52869D01*
X4391Y-52869D01*
X4464Y-52893D01*
X4489Y-52918D01*
X4196Y-73066D02*
X4196Y-72554D01*
X4318Y-72554D01*
X4391Y-72578D01*
X4440Y-72627D01*
X4464Y-72676D01*
X4489Y-72773D01*
X4489Y-72846D01*
X4464Y-72944D01*
X4440Y-72993D01*
X4391Y-73041D01*
X4318Y-73066D01*
X4196Y-73066D01*
X112992Y-23622D02*
X112205Y-23622D01*
X112992Y-43307D02*
X112205Y-43307D01*
X112992Y-62992D02*
X112205Y-62992D01*
X112477Y-13864D02*
X112721Y-13864D01*
X112428Y-14011D02*
X112599Y-13499D01*
X112769Y-14011D01*
X112635Y-33428D02*
X112708Y-33452D01*
X112733Y-33476D01*
X112757Y-33525D01*
X112757Y-33598D01*
X112733Y-33647D01*
X112708Y-33671D01*
X112660Y-33696D01*
X112465Y-33696D01*
X112465Y-33184D01*
X112635Y-33184D01*
X112684Y-33208D01*
X112708Y-33233D01*
X112733Y-33281D01*
X112733Y-33330D01*
X112708Y-33379D01*
X112684Y-33403D01*
X112635Y-33428D01*
X112465Y-33428D01*
X112757Y-53332D02*
X112733Y-53356D01*
X112660Y-53381D01*
X112611Y-53381D01*
X112538Y-53356D01*
X112489Y-53308D01*
X112465Y-53259D01*
X112440Y-53161D01*
X112440Y-53088D01*
X112465Y-52991D01*
X112489Y-52942D01*
X112538Y-52893D01*
X112611Y-52869D01*
X112660Y-52869D01*
X112733Y-52893D01*
X112757Y-52918D01*
X112465Y-73066D02*
X112465Y-72554D01*
X112587Y-72554D01*
X112660Y-72578D01*
X112708Y-72627D01*
X112733Y-72676D01*
X112757Y-72773D01*
X112757Y-72846D01*
X112733Y-72944D01*
X112708Y-72993D01*
X112660Y-73041D01*
X112587Y-73066D01*
X112465Y-73066D01*
X78881Y-76293D02*
X78881Y-75703D01*
X79022Y-75703D01*
X79106Y-75731D01*
X79162Y-75787D01*
X79190Y-75843D01*
X79219Y-75956D01*
X79219Y-76040D01*
X79190Y-76153D01*
X79162Y-76209D01*
X79106Y-76265D01*
X79022Y-76293D01*
X78881Y-76293D01*
X79725Y-76293D02*
X79725Y-75984D01*
X79697Y-75928D01*
X79640Y-75899D01*
X79528Y-75899D01*
X79472Y-75928D01*
X79725Y-76265D02*
X79669Y-76293D01*
X79528Y-76293D01*
X79472Y-76265D01*
X79444Y-76209D01*
X79444Y-76153D01*
X79472Y-76096D01*
X79528Y-76068D01*
X79669Y-76068D01*
X79725Y-76040D01*
X79922Y-75899D02*
X80147Y-75899D01*
X80006Y-75703D02*
X80006Y-76209D01*
X80034Y-76265D01*
X80090Y-76293D01*
X80147Y-76293D01*
X80568Y-76265D02*
X80512Y-76293D01*
X80400Y-76293D01*
X80343Y-76265D01*
X80315Y-76209D01*
X80315Y-75984D01*
X80343Y-75928D01*
X80400Y-75899D01*
X80512Y-75899D01*
X80568Y-75928D01*
X80597Y-75984D01*
X80597Y-76040D01*
X80315Y-76096D01*
X80850Y-76237D02*
X80878Y-76265D01*
X80850Y-76293D01*
X80822Y-76265D01*
X80850Y-76237D01*
X80850Y-76293D01*
X80850Y-75928D02*
X80878Y-75956D01*
X80850Y-75984D01*
X80822Y-75956D01*
X80850Y-75928D01*
X80850Y-75984D01*
X69685Y-76577D02*
X112205Y-76577D01*
X70220Y-77395D02*
X70220Y-76805D01*
X70557Y-77395D02*
X70304Y-77058D01*
X70557Y-76805D02*
X70220Y-77142D01*
X70810Y-77395D02*
X70810Y-77002D01*
X70810Y-76805D02*
X70782Y-76833D01*
X70810Y-76861D01*
X70838Y-76833D01*
X70810Y-76805D01*
X70810Y-76861D01*
X71429Y-77339D02*
X71401Y-77367D01*
X71316Y-77395D01*
X71260Y-77395D01*
X71176Y-77367D01*
X71120Y-77311D01*
X71091Y-77255D01*
X71063Y-77142D01*
X71063Y-77058D01*
X71091Y-76946D01*
X71120Y-76889D01*
X71176Y-76833D01*
X71260Y-76805D01*
X71316Y-76805D01*
X71401Y-76833D01*
X71429Y-76861D01*
X71935Y-77395D02*
X71935Y-77086D01*
X71907Y-77030D01*
X71851Y-77002D01*
X71738Y-77002D01*
X71682Y-77030D01*
X71935Y-77367D02*
X71879Y-77395D01*
X71738Y-77395D01*
X71682Y-77367D01*
X71654Y-77311D01*
X71654Y-77255D01*
X71682Y-77199D01*
X71738Y-77171D01*
X71879Y-77171D01*
X71935Y-77142D01*
X72469Y-77395D02*
X72469Y-76805D01*
X72469Y-77367D02*
X72413Y-77395D01*
X72301Y-77395D01*
X72244Y-77367D01*
X72216Y-77339D01*
X72188Y-77283D01*
X72188Y-77114D01*
X72216Y-77058D01*
X72244Y-77030D01*
X72301Y-77002D01*
X72413Y-77002D01*
X72469Y-77030D01*
X73201Y-77086D02*
X73397Y-77086D01*
X73482Y-77395D02*
X73201Y-77395D01*
X73201Y-76805D01*
X73482Y-76805D01*
X73735Y-77339D02*
X73763Y-77367D01*
X73735Y-77395D01*
X73707Y-77367D01*
X73735Y-77339D01*
X73735Y-77395D01*
X74016Y-77395D02*
X74016Y-76805D01*
X74157Y-76805D01*
X74241Y-76833D01*
X74297Y-76889D01*
X74325Y-76946D01*
X74354Y-77058D01*
X74354Y-77142D01*
X74325Y-77255D01*
X74297Y-77311D01*
X74241Y-77367D01*
X74157Y-77395D01*
X74016Y-77395D01*
X74607Y-77339D02*
X74635Y-77367D01*
X74607Y-77395D01*
X74579Y-77367D01*
X74607Y-77339D01*
X74607Y-77395D01*
X74860Y-77227D02*
X75141Y-77227D01*
X74804Y-77395D02*
X75000Y-76805D01*
X75197Y-77395D01*
X75394Y-77339D02*
X75422Y-77367D01*
X75394Y-77395D01*
X75366Y-77367D01*
X75394Y-77339D01*
X75394Y-77395D01*
X76575Y-77002D02*
X76575Y-77592D01*
X76575Y-77030D02*
X76631Y-77002D01*
X76744Y-77002D01*
X76800Y-77030D01*
X76828Y-77058D01*
X76856Y-77114D01*
X76856Y-77283D01*
X76828Y-77339D01*
X76800Y-77367D01*
X76744Y-77395D01*
X76631Y-77395D01*
X76575Y-77367D01*
X77363Y-77367D02*
X77306Y-77395D01*
X77194Y-77395D01*
X77138Y-77367D01*
X77109Y-77339D01*
X77081Y-77283D01*
X77081Y-77114D01*
X77109Y-77058D01*
X77138Y-77030D01*
X77194Y-77002D01*
X77306Y-77002D01*
X77363Y-77030D01*
X77616Y-77395D02*
X77616Y-76805D01*
X77616Y-77030D02*
X77672Y-77002D01*
X77784Y-77002D01*
X77841Y-77030D01*
X77869Y-77058D01*
X77897Y-77114D01*
X77897Y-77283D01*
X77869Y-77339D01*
X77841Y-77367D01*
X77784Y-77395D01*
X77672Y-77395D01*
X77616Y-77367D01*
X78150Y-77002D02*
X78150Y-77395D01*
X78150Y-77058D02*
X78178Y-77030D01*
X78234Y-77002D01*
X78319Y-77002D01*
X78375Y-77030D01*
X78403Y-77086D01*
X78403Y-77395D01*
X78909Y-77367D02*
X78853Y-77395D01*
X78741Y-77395D01*
X78684Y-77367D01*
X78656Y-77311D01*
X78656Y-77086D01*
X78684Y-77030D01*
X78741Y-77002D01*
X78853Y-77002D01*
X78909Y-77030D01*
X78937Y-77086D01*
X78937Y-77142D01*
X78656Y-77199D01*
X79134Y-77002D02*
X79247Y-77395D01*
X79359Y-77114D01*
X79472Y-77395D01*
X79584Y-77002D01*
X80428Y-77620D02*
X80400Y-77592D01*
X80343Y-77508D01*
X80315Y-77452D01*
X80287Y-77367D01*
X80259Y-77227D01*
X80259Y-77114D01*
X80287Y-76974D01*
X80315Y-76889D01*
X80343Y-76833D01*
X80400Y-76749D01*
X80428Y-76721D01*
X80625Y-76861D02*
X80653Y-76833D01*
X80709Y-76805D01*
X80850Y-76805D01*
X80906Y-76833D01*
X80934Y-76861D01*
X80962Y-76917D01*
X80962Y-76974D01*
X80934Y-77058D01*
X80597Y-77395D01*
X80962Y-77395D01*
X81328Y-76805D02*
X81384Y-76805D01*
X81440Y-76833D01*
X81468Y-76861D01*
X81496Y-76917D01*
X81525Y-77030D01*
X81525Y-77171D01*
X81496Y-77283D01*
X81468Y-77339D01*
X81440Y-77367D01*
X81384Y-77395D01*
X81328Y-77395D01*
X81271Y-77367D01*
X81243Y-77339D01*
X81215Y-77283D01*
X81187Y-77171D01*
X81187Y-77030D01*
X81215Y-76917D01*
X81243Y-76861D01*
X81271Y-76833D01*
X81328Y-76805D01*
X82087Y-77395D02*
X81750Y-77395D01*
X81918Y-77395D02*
X81918Y-76805D01*
X81862Y-76889D01*
X81806Y-76946D01*
X81750Y-76974D01*
X82284Y-76805D02*
X82649Y-76805D01*
X82453Y-77030D01*
X82537Y-77030D01*
X82593Y-77058D01*
X82621Y-77086D01*
X82649Y-77142D01*
X82649Y-77283D01*
X82621Y-77339D01*
X82593Y-77367D01*
X82537Y-77395D01*
X82368Y-77395D01*
X82312Y-77367D01*
X82284Y-77339D01*
X82903Y-77171D02*
X83352Y-77171D01*
X83943Y-77395D02*
X83606Y-77395D01*
X83774Y-77395D02*
X83774Y-76805D01*
X83718Y-76889D01*
X83662Y-76946D01*
X83606Y-76974D01*
X84505Y-77395D02*
X84168Y-77395D01*
X84337Y-77395D02*
X84337Y-76805D01*
X84280Y-76889D01*
X84224Y-76946D01*
X84168Y-76974D01*
X84759Y-77171D02*
X85208Y-77171D01*
X85799Y-77395D02*
X85462Y-77395D01*
X85630Y-77395D02*
X85630Y-76805D01*
X85574Y-76889D01*
X85518Y-76946D01*
X85462Y-76974D01*
X86080Y-77395D02*
X86193Y-77395D01*
X86249Y-77367D01*
X86277Y-77339D01*
X86333Y-77255D01*
X86361Y-77142D01*
X86361Y-76917D01*
X86333Y-76861D01*
X86305Y-76833D01*
X86249Y-76805D01*
X86136Y-76805D01*
X86080Y-76833D01*
X86052Y-76861D01*
X86024Y-76917D01*
X86024Y-77058D01*
X86052Y-77114D01*
X86080Y-77142D01*
X86136Y-77171D01*
X86249Y-77171D01*
X86305Y-77142D01*
X86333Y-77114D01*
X86361Y-77058D01*
X87261Y-77086D02*
X87346Y-77114D01*
X87374Y-77142D01*
X87402Y-77199D01*
X87402Y-77283D01*
X87374Y-77339D01*
X87346Y-77367D01*
X87289Y-77395D01*
X87064Y-77395D01*
X87064Y-76805D01*
X87261Y-76805D01*
X87318Y-76833D01*
X87346Y-76861D01*
X87374Y-76917D01*
X87374Y-76974D01*
X87346Y-77030D01*
X87318Y-77058D01*
X87261Y-77086D01*
X87064Y-77086D01*
X87599Y-76805D02*
X87992Y-76805D01*
X87599Y-77395D01*
X87992Y-77395D01*
X88555Y-77395D02*
X88358Y-77114D01*
X88217Y-77395D02*
X88217Y-76805D01*
X88442Y-76805D01*
X88499Y-76833D01*
X88527Y-76861D01*
X88555Y-76917D01*
X88555Y-77002D01*
X88527Y-77058D01*
X88499Y-77086D01*
X88442Y-77114D01*
X88217Y-77114D01*
X89511Y-77002D02*
X89511Y-77395D01*
X89370Y-76777D02*
X89230Y-77199D01*
X89595Y-77199D01*
X90073Y-77002D02*
X90073Y-77395D01*
X89933Y-76777D02*
X89792Y-77199D01*
X90158Y-77199D01*
X90411Y-77395D02*
X90523Y-77395D01*
X90580Y-77367D01*
X90608Y-77339D01*
X90664Y-77255D01*
X90692Y-77142D01*
X90692Y-76917D01*
X90664Y-76861D01*
X90636Y-76833D01*
X90580Y-76805D01*
X90467Y-76805D01*
X90411Y-76833D01*
X90383Y-76861D01*
X90355Y-76917D01*
X90355Y-77058D01*
X90383Y-77114D01*
X90411Y-77142D01*
X90467Y-77171D01*
X90580Y-77171D01*
X90636Y-77142D01*
X90664Y-77114D01*
X90692Y-77058D01*
X91255Y-77395D02*
X90917Y-77395D01*
X91086Y-77395D02*
X91086Y-76805D01*
X91030Y-76889D01*
X90973Y-76946D01*
X90917Y-76974D01*
X91451Y-77620D02*
X91480Y-77592D01*
X91536Y-77508D01*
X91564Y-77452D01*
X91592Y-77367D01*
X91620Y-77227D01*
X91620Y-77114D01*
X91592Y-76974D01*
X91564Y-76889D01*
X91536Y-76833D01*
X91480Y-76749D01*
X91451Y-76721D01*
X91901Y-77171D02*
X92351Y-77171D01*
X92633Y-77002D02*
X92633Y-77592D01*
X92633Y-77030D02*
X92689Y-77002D01*
X92801Y-77002D01*
X92858Y-77030D01*
X92886Y-77058D01*
X92914Y-77114D01*
X92914Y-77283D01*
X92886Y-77339D01*
X92858Y-77367D01*
X92801Y-77395D01*
X92689Y-77395D01*
X92633Y-77367D01*
X93167Y-77395D02*
X93167Y-77002D01*
X93167Y-77114D02*
X93195Y-77058D01*
X93223Y-77030D01*
X93279Y-77002D01*
X93336Y-77002D01*
X93617Y-77395D02*
X93561Y-77367D01*
X93532Y-77339D01*
X93504Y-77283D01*
X93504Y-77114D01*
X93532Y-77058D01*
X93561Y-77030D01*
X93617Y-77002D01*
X93701Y-77002D01*
X93757Y-77030D01*
X93786Y-77058D01*
X93814Y-77114D01*
X93814Y-77283D01*
X93786Y-77339D01*
X93757Y-77367D01*
X93701Y-77395D01*
X93617Y-77395D01*
X94320Y-77395D02*
X94320Y-76805D01*
X94320Y-77367D02*
X94264Y-77395D01*
X94151Y-77395D01*
X94095Y-77367D01*
X94067Y-77339D01*
X94039Y-77283D01*
X94039Y-77114D01*
X94067Y-77058D01*
X94095Y-77030D01*
X94151Y-77002D01*
X94264Y-77002D01*
X94320Y-77030D01*
X94854Y-77002D02*
X94854Y-77395D01*
X94601Y-77002D02*
X94601Y-77311D01*
X94629Y-77367D01*
X94685Y-77395D01*
X94770Y-77395D01*
X94826Y-77367D01*
X94854Y-77339D01*
X95388Y-77367D02*
X95332Y-77395D01*
X95220Y-77395D01*
X95163Y-77367D01*
X95135Y-77339D01*
X95107Y-77283D01*
X95107Y-77114D01*
X95135Y-77058D01*
X95163Y-77030D01*
X95220Y-77002D01*
X95332Y-77002D01*
X95388Y-77030D01*
X95557Y-77002D02*
X95782Y-77002D01*
X95642Y-76805D02*
X95642Y-77311D01*
X95670Y-77367D01*
X95726Y-77395D01*
X95782Y-77395D01*
X69685Y-75396D02*
X112205Y-75396D01*
G54D11*
X104022Y-76293D02*
X103825Y-76012D01*
X103684Y-76293D02*
X103684Y-75703D01*
X103909Y-75703D01*
X103965Y-75731D01*
X103994Y-75759D01*
X104022Y-75815D01*
X104022Y-75899D01*
X103994Y-75956D01*
X103965Y-75984D01*
X103909Y-76012D01*
X103684Y-76012D01*
X104500Y-76265D02*
X104444Y-76293D01*
X104331Y-76293D01*
X104275Y-76265D01*
X104247Y-76209D01*
X104247Y-75984D01*
X104275Y-75928D01*
X104331Y-75899D01*
X104444Y-75899D01*
X104500Y-75928D01*
X104528Y-75984D01*
X104528Y-76040D01*
X104247Y-76096D01*
X104725Y-75899D02*
X104865Y-76293D01*
X105006Y-75899D01*
X105231Y-76237D02*
X105259Y-76265D01*
X105231Y-76293D01*
X105203Y-76265D01*
X105231Y-76237D01*
X105231Y-76293D01*
X105231Y-75928D02*
X105259Y-75956D01*
X105231Y-75984D01*
X105203Y-75956D01*
X105231Y-75928D01*
X105231Y-75984D01*
X105906Y-75703D02*
X106271Y-75703D01*
X106075Y-75928D01*
X106159Y-75928D01*
X106215Y-75956D01*
X106243Y-75984D01*
X106271Y-76040D01*
X106271Y-76181D01*
X106243Y-76237D01*
X106215Y-76265D01*
X106159Y-76293D01*
X105990Y-76293D01*
X105934Y-76265D01*
X105906Y-76237D01*
G54D10*
X70192Y-76265D02*
X70276Y-76293D01*
X70417Y-76293D01*
X70473Y-76265D01*
X70501Y-76237D01*
X70529Y-76181D01*
X70529Y-76124D01*
X70501Y-76068D01*
X70473Y-76040D01*
X70417Y-76012D01*
X70304Y-75984D01*
X70248Y-75956D01*
X70220Y-75928D01*
X70192Y-75871D01*
X70192Y-75815D01*
X70220Y-75759D01*
X70248Y-75731D01*
X70304Y-75703D01*
X70445Y-75703D01*
X70529Y-75731D01*
X70782Y-76293D02*
X70782Y-75899D01*
X70782Y-75703D02*
X70754Y-75731D01*
X70782Y-75759D01*
X70810Y-75731D01*
X70782Y-75703D01*
X70782Y-75759D01*
X71007Y-75899D02*
X71316Y-75899D01*
X71007Y-76293D01*
X71316Y-76293D01*
X71766Y-76265D02*
X71710Y-76293D01*
X71598Y-76293D01*
X71541Y-76265D01*
X71513Y-76209D01*
X71513Y-75984D01*
X71541Y-75928D01*
X71598Y-75899D01*
X71710Y-75899D01*
X71766Y-75928D01*
X71795Y-75984D01*
X71795Y-76040D01*
X71513Y-76096D01*
X72048Y-76237D02*
X72076Y-76265D01*
X72048Y-76293D01*
X72019Y-76265D01*
X72048Y-76237D01*
X72048Y-76293D01*
X72048Y-75928D02*
X72076Y-75956D01*
X72048Y-75984D01*
X72019Y-75956D01*
X72048Y-75928D01*
X72048Y-75984D01*
X72751Y-76124D02*
X73032Y-76124D01*
X72694Y-76293D02*
X72891Y-75703D01*
X73088Y-76293D01*
X73538Y-75899D02*
X73538Y-76293D01*
X73397Y-75674D02*
X73257Y-76096D01*
X73622Y-76096D01*
X103684Y-77395D02*
X103684Y-76805D01*
X104219Y-77395D02*
X104219Y-76805D01*
X104219Y-77367D02*
X104162Y-77395D01*
X104050Y-77395D01*
X103994Y-77367D01*
X103965Y-77339D01*
X103937Y-77283D01*
X103937Y-77114D01*
X103965Y-77058D01*
X103994Y-77030D01*
X104050Y-77002D01*
X104162Y-77002D01*
X104219Y-77030D01*
X104500Y-77339D02*
X104528Y-77367D01*
X104500Y-77395D01*
X104472Y-77367D01*
X104500Y-77339D01*
X104500Y-77395D01*
X104500Y-77030D02*
X104528Y-77058D01*
X104500Y-77086D01*
X104472Y-77058D01*
X104500Y-77030D01*
X104500Y-77086D01*
X105540Y-77395D02*
X105203Y-77395D01*
X105372Y-77395D02*
X105372Y-76805D01*
X105315Y-76889D01*
X105259Y-76946D01*
X105203Y-76974D01*
X106215Y-76777D02*
X105709Y-77536D01*
X106721Y-77395D02*
X106384Y-77395D01*
X106553Y-77395D02*
X106553Y-76805D01*
X106496Y-76889D01*
X106440Y-76946D01*
X106384Y-76974D01*
X69685Y-73821D02*
X112205Y-73821D01*
G54D12*
X70257Y-74099D02*
X70707Y-74099D01*
X70384Y-74886D02*
X70482Y-74099D01*
X70871Y-74886D02*
X70937Y-74361D01*
X70970Y-74099D02*
X70927Y-74136D01*
X70960Y-74174D01*
X71002Y-74136D01*
X70970Y-74099D01*
X70960Y-74174D01*
X71199Y-74361D02*
X71499Y-74361D01*
X71345Y-74099D02*
X71260Y-74774D01*
X71288Y-74849D01*
X71359Y-74886D01*
X71434Y-74886D01*
X71809Y-74886D02*
X71738Y-74849D01*
X71710Y-74774D01*
X71795Y-74099D01*
X72413Y-74849D02*
X72334Y-74886D01*
X72184Y-74886D01*
X72113Y-74849D01*
X72085Y-74774D01*
X72123Y-74474D01*
X72169Y-74399D01*
X72249Y-74361D01*
X72399Y-74361D01*
X72469Y-74399D01*
X72498Y-74474D01*
X72488Y-74549D01*
X72104Y-74624D01*
X72793Y-74811D02*
X72826Y-74849D01*
X72783Y-74886D01*
X72751Y-74849D01*
X72793Y-74811D01*
X72783Y-74886D01*
X72844Y-74399D02*
X72877Y-74436D01*
X72835Y-74474D01*
X72802Y-74436D01*
X72844Y-74399D01*
X72835Y-74474D01*
X73726Y-74849D02*
X73833Y-74886D01*
X74021Y-74886D01*
X74100Y-74849D01*
X74143Y-74811D01*
X74190Y-74736D01*
X74199Y-74661D01*
X74171Y-74586D01*
X74138Y-74549D01*
X74068Y-74511D01*
X73922Y-74474D01*
X73852Y-74436D01*
X73819Y-74399D01*
X73791Y-74324D01*
X73801Y-74249D01*
X73847Y-74174D01*
X73890Y-74136D01*
X73969Y-74099D01*
X74157Y-74099D01*
X74265Y-74136D01*
X74813Y-74849D02*
X74733Y-74886D01*
X74583Y-74886D01*
X74513Y-74849D01*
X74485Y-74774D01*
X74522Y-74474D01*
X74569Y-74399D01*
X74649Y-74361D01*
X74799Y-74361D01*
X74869Y-74399D01*
X74897Y-74474D01*
X74888Y-74549D01*
X74504Y-74624D01*
X75249Y-74361D02*
X75183Y-74886D01*
X75239Y-74436D02*
X75282Y-74399D01*
X75361Y-74361D01*
X75474Y-74361D01*
X75544Y-74399D01*
X75572Y-74474D01*
X75521Y-74886D01*
X75863Y-74849D02*
X75933Y-74886D01*
X76083Y-74886D01*
X76163Y-74849D01*
X76210Y-74774D01*
X76214Y-74736D01*
X76186Y-74661D01*
X76116Y-74624D01*
X76003Y-74624D01*
X75933Y-74586D01*
X75905Y-74511D01*
X75910Y-74474D01*
X75956Y-74399D01*
X76036Y-74361D01*
X76149Y-74361D01*
X76219Y-74399D01*
X76645Y-74886D02*
X76575Y-74849D01*
X76542Y-74811D01*
X76514Y-74736D01*
X76542Y-74511D01*
X76589Y-74436D01*
X76631Y-74399D01*
X76711Y-74361D01*
X76824Y-74361D01*
X76894Y-74399D01*
X76927Y-74436D01*
X76955Y-74511D01*
X76927Y-74736D01*
X76880Y-74811D01*
X76838Y-74849D01*
X76758Y-74886D01*
X76645Y-74886D01*
X77245Y-74886D02*
X77311Y-74361D01*
X77292Y-74511D02*
X77339Y-74436D01*
X77381Y-74399D01*
X77461Y-74361D01*
X77536Y-74361D01*
X77733Y-74886D02*
X77831Y-74099D01*
X78183Y-74886D01*
X78281Y-74099D01*
X78670Y-74886D02*
X78600Y-74849D01*
X78567Y-74811D01*
X78539Y-74736D01*
X78567Y-74511D01*
X78614Y-74436D01*
X78656Y-74399D01*
X78736Y-74361D01*
X78848Y-74361D01*
X78919Y-74399D01*
X78951Y-74436D01*
X78980Y-74511D01*
X78951Y-74736D01*
X78905Y-74811D01*
X78862Y-74849D01*
X78783Y-74886D01*
X78670Y-74886D01*
X79608Y-74886D02*
X79706Y-74099D01*
X79612Y-74849D02*
X79533Y-74886D01*
X79383Y-74886D01*
X79312Y-74849D01*
X79280Y-74811D01*
X79251Y-74736D01*
X79280Y-74511D01*
X79326Y-74436D01*
X79369Y-74399D01*
X79448Y-74361D01*
X79598Y-74361D01*
X79669Y-74399D01*
X80287Y-74849D02*
X80208Y-74886D01*
X80058Y-74886D01*
X79987Y-74849D01*
X79959Y-74774D01*
X79997Y-74474D01*
X80043Y-74399D01*
X80123Y-74361D01*
X80273Y-74361D01*
X80343Y-74399D01*
X80372Y-74474D01*
X80362Y-74549D01*
X79978Y-74624D01*
G54D10*
X70417Y-73070D02*
X70220Y-73070D01*
X70220Y-73380D02*
X70220Y-72789D01*
X70501Y-72789D01*
X70726Y-73380D02*
X70726Y-72986D01*
X70726Y-72789D02*
X70698Y-72817D01*
X70726Y-72845D01*
X70754Y-72817D01*
X70726Y-72789D01*
X70726Y-72845D01*
X71091Y-73380D02*
X71035Y-73352D01*
X71007Y-73295D01*
X71007Y-72789D01*
X71541Y-73352D02*
X71485Y-73380D01*
X71373Y-73380D01*
X71316Y-73352D01*
X71288Y-73295D01*
X71288Y-73070D01*
X71316Y-73014D01*
X71373Y-72986D01*
X71485Y-72986D01*
X71541Y-73014D01*
X71570Y-73070D01*
X71570Y-73127D01*
X71288Y-73183D01*
X71823Y-73323D02*
X71851Y-73352D01*
X71823Y-73380D01*
X71795Y-73352D01*
X71823Y-73323D01*
X71823Y-73380D01*
X71823Y-73014D02*
X71851Y-73042D01*
X71823Y-73070D01*
X71795Y-73042D01*
X71823Y-73014D01*
X71823Y-73070D01*
X72526Y-73352D02*
X72610Y-73380D01*
X72751Y-73380D01*
X72807Y-73352D01*
X72835Y-73323D01*
X72863Y-73267D01*
X72863Y-73211D01*
X72835Y-73155D01*
X72807Y-73127D01*
X72751Y-73099D01*
X72638Y-73070D01*
X72582Y-73042D01*
X72554Y-73014D01*
X72526Y-72958D01*
X72526Y-72902D01*
X72554Y-72845D01*
X72582Y-72817D01*
X72638Y-72789D01*
X72779Y-72789D01*
X72863Y-72817D01*
X73341Y-73352D02*
X73285Y-73380D01*
X73172Y-73380D01*
X73116Y-73352D01*
X73088Y-73295D01*
X73088Y-73070D01*
X73116Y-73014D01*
X73172Y-72986D01*
X73285Y-72986D01*
X73341Y-73014D01*
X73369Y-73070D01*
X73369Y-73127D01*
X73088Y-73183D01*
X73622Y-72986D02*
X73622Y-73380D01*
X73622Y-73042D02*
X73651Y-73014D01*
X73707Y-72986D01*
X73791Y-72986D01*
X73847Y-73014D01*
X73876Y-73070D01*
X73876Y-73380D01*
X74129Y-73352D02*
X74185Y-73380D01*
X74297Y-73380D01*
X74354Y-73352D01*
X74382Y-73295D01*
X74382Y-73267D01*
X74354Y-73211D01*
X74297Y-73183D01*
X74213Y-73183D01*
X74157Y-73155D01*
X74129Y-73099D01*
X74129Y-73070D01*
X74157Y-73014D01*
X74213Y-72986D01*
X74297Y-72986D01*
X74354Y-73014D01*
X74719Y-73380D02*
X74663Y-73352D01*
X74635Y-73323D01*
X74607Y-73267D01*
X74607Y-73099D01*
X74635Y-73042D01*
X74663Y-73014D01*
X74719Y-72986D01*
X74804Y-72986D01*
X74860Y-73014D01*
X74888Y-73042D01*
X74916Y-73099D01*
X74916Y-73267D01*
X74888Y-73323D01*
X74860Y-73352D01*
X74804Y-73380D01*
X74719Y-73380D01*
X75169Y-73380D02*
X75169Y-72986D01*
X75169Y-73099D02*
X75197Y-73042D01*
X75225Y-73014D01*
X75282Y-72986D01*
X75338Y-72986D01*
X75647Y-72789D02*
X75760Y-72789D01*
X75816Y-72817D01*
X75872Y-72874D01*
X75900Y-72986D01*
X75900Y-73183D01*
X75872Y-73295D01*
X75816Y-73352D01*
X75760Y-73380D01*
X75647Y-73380D01*
X75591Y-73352D01*
X75535Y-73295D01*
X75507Y-73183D01*
X75507Y-72986D01*
X75535Y-72874D01*
X75591Y-72817D01*
X75647Y-72789D01*
X76153Y-72986D02*
X76153Y-73380D01*
X76153Y-73042D02*
X76181Y-73014D01*
X76238Y-72986D01*
X76322Y-72986D01*
X76378Y-73014D01*
X76406Y-73070D01*
X76406Y-73380D01*
X76913Y-73352D02*
X76856Y-73380D01*
X76744Y-73380D01*
X76688Y-73352D01*
X76660Y-73295D01*
X76660Y-73070D01*
X76688Y-73014D01*
X76744Y-72986D01*
X76856Y-72986D01*
X76913Y-73014D01*
X76941Y-73070D01*
X76941Y-73127D01*
X76660Y-73183D01*
X77194Y-73323D02*
X77222Y-73352D01*
X77194Y-73380D01*
X77166Y-73352D01*
X77194Y-73323D01*
X77194Y-73380D01*
X77475Y-73380D02*
X77475Y-72789D01*
X77531Y-73155D02*
X77700Y-73380D01*
X77700Y-72986D02*
X77475Y-73211D01*
X77953Y-73380D02*
X77953Y-72986D01*
X77953Y-72789D02*
X77925Y-72817D01*
X77953Y-72845D01*
X77981Y-72817D01*
X77953Y-72789D01*
X77953Y-72845D01*
X78487Y-73352D02*
X78431Y-73380D01*
X78319Y-73380D01*
X78262Y-73352D01*
X78234Y-73323D01*
X78206Y-73267D01*
X78206Y-73099D01*
X78234Y-73042D01*
X78262Y-73014D01*
X78319Y-72986D01*
X78431Y-72986D01*
X78487Y-73014D01*
X78994Y-73380D02*
X78994Y-73070D01*
X78965Y-73014D01*
X78909Y-72986D01*
X78797Y-72986D01*
X78741Y-73014D01*
X78994Y-73352D02*
X78937Y-73380D01*
X78797Y-73380D01*
X78741Y-73352D01*
X78712Y-73295D01*
X78712Y-73239D01*
X78741Y-73183D01*
X78797Y-73155D01*
X78937Y-73155D01*
X78994Y-73127D01*
X79528Y-73380D02*
X79528Y-72789D01*
X79528Y-73352D02*
X79472Y-73380D01*
X79359Y-73380D01*
X79303Y-73352D01*
X79275Y-73323D01*
X79247Y-73267D01*
X79247Y-73099D01*
X79275Y-73042D01*
X79303Y-73014D01*
X79359Y-72986D01*
X79472Y-72986D01*
X79528Y-73014D01*
X79669Y-73436D02*
X80118Y-73436D01*
X80259Y-72986D02*
X80259Y-73577D01*
X80259Y-73014D02*
X80315Y-72986D01*
X80428Y-72986D01*
X80484Y-73014D01*
X80512Y-73042D01*
X80540Y-73099D01*
X80540Y-73267D01*
X80512Y-73323D01*
X80484Y-73352D01*
X80428Y-73380D01*
X80315Y-73380D01*
X80259Y-73352D01*
X81046Y-73352D02*
X80990Y-73380D01*
X80878Y-73380D01*
X80822Y-73352D01*
X80793Y-73323D01*
X80765Y-73267D01*
X80765Y-73099D01*
X80793Y-73042D01*
X80822Y-73014D01*
X80878Y-72986D01*
X80990Y-72986D01*
X81046Y-73014D01*
X81300Y-73380D02*
X81300Y-72789D01*
X81300Y-73014D02*
X81356Y-72986D01*
X81468Y-72986D01*
X81525Y-73014D01*
X81553Y-73042D01*
X81581Y-73099D01*
X81581Y-73267D01*
X81553Y-73323D01*
X81525Y-73352D01*
X81468Y-73380D01*
X81356Y-73380D01*
X81300Y-73352D01*
X69685Y-71459D02*
X112205Y-71459D01*
X70192Y-72289D02*
X70276Y-72317D01*
X70417Y-72317D01*
X70473Y-72289D01*
X70501Y-72260D01*
X70529Y-72204D01*
X70529Y-72148D01*
X70501Y-72092D01*
X70473Y-72064D01*
X70417Y-72036D01*
X70304Y-72007D01*
X70248Y-71979D01*
X70220Y-71951D01*
X70192Y-71895D01*
X70192Y-71839D01*
X70220Y-71782D01*
X70248Y-71754D01*
X70304Y-71726D01*
X70445Y-71726D01*
X70529Y-71754D01*
X70782Y-72317D02*
X70782Y-71726D01*
X71035Y-72317D02*
X71035Y-72007D01*
X71007Y-71951D01*
X70951Y-71923D01*
X70867Y-71923D01*
X70810Y-71951D01*
X70782Y-71979D01*
X71541Y-72289D02*
X71485Y-72317D01*
X71373Y-72317D01*
X71316Y-72289D01*
X71288Y-72232D01*
X71288Y-72007D01*
X71316Y-71951D01*
X71373Y-71923D01*
X71485Y-71923D01*
X71541Y-71951D01*
X71570Y-72007D01*
X71570Y-72064D01*
X71288Y-72120D01*
X72048Y-72289D02*
X71991Y-72317D01*
X71879Y-72317D01*
X71823Y-72289D01*
X71795Y-72232D01*
X71795Y-72007D01*
X71823Y-71951D01*
X71879Y-71923D01*
X71991Y-71923D01*
X72048Y-71951D01*
X72076Y-72007D01*
X72076Y-72064D01*
X71795Y-72120D01*
X72244Y-71923D02*
X72469Y-71923D01*
X72329Y-71726D02*
X72329Y-72232D01*
X72357Y-72289D01*
X72413Y-72317D01*
X72469Y-72317D01*
X72666Y-72260D02*
X72694Y-72289D01*
X72666Y-72317D01*
X72638Y-72289D01*
X72666Y-72260D01*
X72666Y-72317D01*
X72666Y-71951D02*
X72694Y-71979D01*
X72666Y-72007D01*
X72638Y-71979D01*
X72666Y-71951D01*
X72666Y-72007D01*
G54D11*
X70473Y-71108D02*
X70417Y-71136D01*
X70304Y-71136D01*
X70248Y-71108D01*
X70220Y-71079D01*
X70192Y-71023D01*
X70192Y-70854D01*
X70220Y-70798D01*
X70248Y-70770D01*
X70304Y-70742D01*
X70417Y-70742D01*
X70473Y-70770D01*
X70979Y-71136D02*
X70979Y-70545D01*
X70979Y-71108D02*
X70923Y-71136D01*
X70810Y-71136D01*
X70754Y-71108D01*
X70726Y-71079D01*
X70698Y-71023D01*
X70698Y-70854D01*
X70726Y-70798D01*
X70754Y-70770D01*
X70810Y-70742D01*
X70923Y-70742D01*
X70979Y-70770D01*
X71513Y-71108D02*
X71457Y-71136D01*
X71345Y-71136D01*
X71288Y-71108D01*
X71260Y-71079D01*
X71232Y-71023D01*
X71232Y-70854D01*
X71260Y-70798D01*
X71288Y-70770D01*
X71345Y-70742D01*
X71457Y-70742D01*
X71513Y-70770D01*
G54D10*
X70135Y-69561D02*
X70360Y-69561D01*
X70220Y-69955D02*
X70220Y-69448D01*
X70248Y-69392D01*
X70304Y-69364D01*
X70360Y-69364D01*
X70557Y-69955D02*
X70557Y-69561D01*
X70557Y-69364D02*
X70529Y-69392D01*
X70557Y-69420D01*
X70585Y-69392D01*
X70557Y-69364D01*
X70557Y-69420D01*
X70782Y-69955D02*
X71091Y-69561D01*
X70782Y-69561D02*
X71091Y-69955D01*
X71541Y-69926D02*
X71485Y-69955D01*
X71373Y-69955D01*
X71316Y-69926D01*
X71288Y-69870D01*
X71288Y-69645D01*
X71316Y-69589D01*
X71373Y-69561D01*
X71485Y-69561D01*
X71541Y-69589D01*
X71570Y-69645D01*
X71570Y-69701D01*
X71288Y-69758D01*
X72076Y-69955D02*
X72076Y-69364D01*
X72076Y-69926D02*
X72019Y-69955D01*
X71907Y-69955D01*
X71851Y-69926D01*
X71823Y-69898D01*
X71795Y-69842D01*
X71795Y-69673D01*
X71823Y-69617D01*
X71851Y-69589D01*
X71907Y-69561D01*
X72019Y-69561D01*
X72076Y-69589D01*
X72779Y-69926D02*
X72835Y-69955D01*
X72947Y-69955D01*
X73004Y-69926D01*
X73032Y-69870D01*
X73032Y-69842D01*
X73004Y-69786D01*
X72947Y-69758D01*
X72863Y-69758D01*
X72807Y-69730D01*
X72779Y-69673D01*
X72779Y-69645D01*
X72807Y-69589D01*
X72863Y-69561D01*
X72947Y-69561D01*
X73004Y-69589D01*
X73229Y-69561D02*
X73341Y-69955D01*
X73454Y-69673D01*
X73566Y-69955D01*
X73679Y-69561D01*
X73904Y-69955D02*
X73904Y-69561D01*
X73904Y-69364D02*
X73876Y-69392D01*
X73904Y-69420D01*
X73932Y-69392D01*
X73904Y-69364D01*
X73904Y-69420D01*
X74100Y-69561D02*
X74325Y-69561D01*
X74185Y-69364D02*
X74185Y-69870D01*
X74213Y-69926D01*
X74269Y-69955D01*
X74325Y-69955D01*
X74775Y-69926D02*
X74719Y-69955D01*
X74607Y-69955D01*
X74550Y-69926D01*
X74522Y-69898D01*
X74494Y-69842D01*
X74494Y-69673D01*
X74522Y-69617D01*
X74550Y-69589D01*
X74607Y-69561D01*
X74719Y-69561D01*
X74775Y-69589D01*
X75028Y-69955D02*
X75028Y-69364D01*
X75282Y-69955D02*
X75282Y-69645D01*
X75253Y-69589D01*
X75197Y-69561D01*
X75113Y-69561D01*
X75057Y-69589D01*
X75028Y-69617D01*
X76266Y-69955D02*
X76266Y-69645D01*
X76238Y-69589D01*
X76181Y-69561D01*
X76069Y-69561D01*
X76013Y-69589D01*
X76266Y-69926D02*
X76210Y-69955D01*
X76069Y-69955D01*
X76013Y-69926D01*
X75985Y-69870D01*
X75985Y-69814D01*
X76013Y-69758D01*
X76069Y-69730D01*
X76210Y-69730D01*
X76266Y-69701D01*
X76547Y-69561D02*
X76547Y-69955D01*
X76547Y-69617D02*
X76575Y-69589D01*
X76631Y-69561D01*
X76716Y-69561D01*
X76772Y-69589D01*
X76800Y-69645D01*
X76800Y-69955D01*
X77334Y-69955D02*
X77334Y-69364D01*
X77334Y-69926D02*
X77278Y-69955D01*
X77166Y-69955D01*
X77109Y-69926D01*
X77081Y-69898D01*
X77053Y-69842D01*
X77053Y-69673D01*
X77081Y-69617D01*
X77109Y-69589D01*
X77166Y-69561D01*
X77278Y-69561D01*
X77334Y-69589D01*
X78066Y-69955D02*
X78066Y-69364D01*
X78066Y-69589D02*
X78122Y-69561D01*
X78234Y-69561D01*
X78291Y-69589D01*
X78319Y-69617D01*
X78347Y-69673D01*
X78347Y-69842D01*
X78319Y-69898D01*
X78291Y-69926D01*
X78234Y-69955D01*
X78122Y-69955D01*
X78066Y-69926D01*
X78853Y-69955D02*
X78853Y-69645D01*
X78825Y-69589D01*
X78769Y-69561D01*
X78656Y-69561D01*
X78600Y-69589D01*
X78853Y-69926D02*
X78797Y-69955D01*
X78656Y-69955D01*
X78600Y-69926D01*
X78572Y-69870D01*
X78572Y-69814D01*
X78600Y-69758D01*
X78656Y-69730D01*
X78797Y-69730D01*
X78853Y-69701D01*
X79050Y-69561D02*
X79275Y-69561D01*
X79134Y-69364D02*
X79134Y-69870D01*
X79162Y-69926D01*
X79219Y-69955D01*
X79275Y-69955D01*
X79387Y-69561D02*
X79612Y-69561D01*
X79472Y-69364D02*
X79472Y-69870D01*
X79500Y-69926D01*
X79556Y-69955D01*
X79612Y-69955D01*
X80034Y-69926D02*
X79978Y-69955D01*
X79865Y-69955D01*
X79809Y-69926D01*
X79781Y-69870D01*
X79781Y-69645D01*
X79809Y-69589D01*
X79865Y-69561D01*
X79978Y-69561D01*
X80034Y-69589D01*
X80062Y-69645D01*
X80062Y-69701D01*
X79781Y-69758D01*
X80315Y-69955D02*
X80315Y-69561D01*
X80315Y-69673D02*
X80343Y-69617D01*
X80372Y-69589D01*
X80428Y-69561D01*
X80484Y-69561D01*
X80625Y-69561D02*
X80765Y-69955D01*
X80906Y-69561D02*
X80765Y-69955D01*
X80709Y-70095D01*
X80681Y-70123D01*
X80625Y-70151D01*
X81496Y-69561D02*
X81721Y-69561D01*
X81581Y-69955D02*
X81581Y-69448D01*
X81609Y-69392D01*
X81665Y-69364D01*
X81721Y-69364D01*
X82003Y-69955D02*
X81946Y-69926D01*
X81918Y-69898D01*
X81890Y-69842D01*
X81890Y-69673D01*
X81918Y-69617D01*
X81946Y-69589D01*
X82003Y-69561D01*
X82087Y-69561D01*
X82143Y-69589D01*
X82171Y-69617D01*
X82199Y-69673D01*
X82199Y-69842D01*
X82171Y-69898D01*
X82143Y-69926D01*
X82087Y-69955D01*
X82003Y-69955D01*
X82537Y-69955D02*
X82481Y-69926D01*
X82453Y-69898D01*
X82424Y-69842D01*
X82424Y-69673D01*
X82453Y-69617D01*
X82481Y-69589D01*
X82537Y-69561D01*
X82621Y-69561D01*
X82678Y-69589D01*
X82706Y-69617D01*
X82734Y-69673D01*
X82734Y-69842D01*
X82706Y-69898D01*
X82678Y-69926D01*
X82621Y-69955D01*
X82537Y-69955D01*
X82903Y-69561D02*
X83127Y-69561D01*
X82987Y-69364D02*
X82987Y-69870D01*
X83015Y-69926D01*
X83071Y-69955D01*
X83127Y-69955D01*
X83324Y-69561D02*
X83324Y-70151D01*
X83324Y-69589D02*
X83381Y-69561D01*
X83493Y-69561D01*
X83549Y-69589D01*
X83577Y-69617D01*
X83606Y-69673D01*
X83606Y-69842D01*
X83577Y-69898D01*
X83549Y-69926D01*
X83493Y-69955D01*
X83381Y-69955D01*
X83324Y-69926D01*
X83859Y-69955D02*
X83859Y-69561D01*
X83859Y-69673D02*
X83887Y-69617D01*
X83915Y-69589D01*
X83971Y-69561D01*
X84027Y-69561D01*
X84224Y-69955D02*
X84224Y-69561D01*
X84224Y-69364D02*
X84196Y-69392D01*
X84224Y-69420D01*
X84252Y-69392D01*
X84224Y-69364D01*
X84224Y-69420D01*
X84505Y-69561D02*
X84505Y-69955D01*
X84505Y-69617D02*
X84534Y-69589D01*
X84590Y-69561D01*
X84674Y-69561D01*
X84730Y-69589D01*
X84759Y-69645D01*
X84759Y-69955D01*
X84955Y-69561D02*
X85180Y-69561D01*
X85040Y-69364D02*
X85040Y-69870D01*
X85068Y-69926D01*
X85124Y-69955D01*
X85180Y-69955D01*
X85349Y-69926D02*
X85405Y-69955D01*
X85518Y-69955D01*
X85574Y-69926D01*
X85602Y-69870D01*
X85602Y-69842D01*
X85574Y-69786D01*
X85518Y-69758D01*
X85433Y-69758D01*
X85377Y-69730D01*
X85349Y-69673D01*
X85349Y-69645D01*
X85377Y-69589D01*
X85433Y-69561D01*
X85518Y-69561D01*
X85574Y-69589D01*
X77559Y-75396D02*
X77559Y-76577D01*
X102756Y-75396D02*
X102756Y-77955D01*
G54D13*
X62500Y-22244D02*
X65255Y-22244D01*
X65387Y-23698D02*
G75*
G03X65387Y-23698I-250J0D01*
G74*
G01*
G54D11*
X62373Y-22736D02*
X61782Y-22736D01*
X61782Y-21948D02*
X62373Y-21751D01*
X61782Y-21555D01*
X51054Y-13317D02*
X51054Y-13204D01*
X51082Y-13152D01*
X51138Y-13102D01*
X51251Y-13088D01*
X51448Y-13113D01*
X51560Y-13155D01*
X51616Y-13218D01*
X51645Y-13278D01*
X51645Y-13391D01*
X51616Y-13443D01*
X51560Y-13493D01*
X51448Y-13507D01*
X51251Y-13482D01*
X51138Y-13440D01*
X51082Y-13377D01*
X51054Y-13317D01*
X51645Y-12884D02*
X51054Y-12811D01*
X51645Y-12547D01*
X51054Y-12473D01*
X53754Y-21105D02*
X53838Y-21133D01*
X53979Y-21133D01*
X54035Y-21105D01*
X54063Y-21077D01*
X54091Y-21020D01*
X54091Y-20964D01*
X54063Y-20908D01*
X54035Y-20880D01*
X53979Y-20852D01*
X53866Y-20823D01*
X53810Y-20795D01*
X53782Y-20767D01*
X53754Y-20711D01*
X53754Y-20655D01*
X53782Y-20598D01*
X53810Y-20570D01*
X53866Y-20542D01*
X54007Y-20542D01*
X54091Y-20570D01*
X54569Y-21105D02*
X54513Y-21133D01*
X54401Y-21133D01*
X54344Y-21105D01*
X54316Y-21048D01*
X54316Y-20823D01*
X54344Y-20767D01*
X54401Y-20739D01*
X54513Y-20739D01*
X54569Y-20767D01*
X54597Y-20823D01*
X54597Y-20880D01*
X54316Y-20936D01*
X54850Y-20739D02*
X54850Y-21133D01*
X54850Y-20795D02*
X54879Y-20767D01*
X54935Y-20739D01*
X55019Y-20739D01*
X55075Y-20767D01*
X55104Y-20823D01*
X55104Y-21133D01*
X55357Y-21105D02*
X55413Y-21133D01*
X55525Y-21133D01*
X55582Y-21105D01*
X55610Y-21048D01*
X55610Y-21020D01*
X55582Y-20964D01*
X55525Y-20936D01*
X55441Y-20936D01*
X55385Y-20908D01*
X55357Y-20852D01*
X55357Y-20823D01*
X55385Y-20767D01*
X55441Y-20739D01*
X55525Y-20739D01*
X55582Y-20767D01*
X55947Y-21133D02*
X55891Y-21105D01*
X55863Y-21077D01*
X55835Y-21020D01*
X55835Y-20852D01*
X55863Y-20795D01*
X55891Y-20767D01*
X55947Y-20739D01*
X56032Y-20739D01*
X56088Y-20767D01*
X56116Y-20795D01*
X56144Y-20852D01*
X56144Y-21020D01*
X56116Y-21077D01*
X56088Y-21105D01*
X56032Y-21133D01*
X55947Y-21133D01*
X56397Y-21133D02*
X56397Y-20739D01*
X56397Y-20852D02*
X56425Y-20795D01*
X56453Y-20767D01*
X56510Y-20739D01*
X56566Y-20739D01*
X56763Y-21133D02*
X56763Y-20542D01*
X57100Y-21133D01*
X57100Y-20542D01*
X57466Y-21133D02*
X57410Y-21105D01*
X57381Y-21077D01*
X57353Y-21020D01*
X57353Y-20852D01*
X57381Y-20795D01*
X57410Y-20767D01*
X57466Y-20739D01*
X57550Y-20739D01*
X57606Y-20767D01*
X57634Y-20795D01*
X57663Y-20852D01*
X57663Y-21020D01*
X57634Y-21077D01*
X57606Y-21105D01*
X57550Y-21133D01*
X57466Y-21133D01*
X58169Y-21133D02*
X58169Y-20542D01*
X58169Y-21105D02*
X58113Y-21133D01*
X58000Y-21133D01*
X57944Y-21105D01*
X57916Y-21077D01*
X57888Y-21020D01*
X57888Y-20852D01*
X57916Y-20795D01*
X57944Y-20767D01*
X58000Y-20739D01*
X58113Y-20739D01*
X58169Y-20767D01*
X58675Y-21105D02*
X58619Y-21133D01*
X58506Y-21133D01*
X58450Y-21105D01*
X58422Y-21048D01*
X58422Y-20823D01*
X58450Y-20767D01*
X58506Y-20739D01*
X58619Y-20739D01*
X58675Y-20767D01*
X58703Y-20823D01*
X58703Y-20880D01*
X58422Y-20936D01*
X53726Y-21684D02*
X53866Y-22078D01*
X54007Y-21684D01*
X54176Y-21487D02*
X54541Y-21487D01*
X54344Y-21712D01*
X54429Y-21712D01*
X54485Y-21740D01*
X54513Y-21768D01*
X54541Y-21825D01*
X54541Y-21965D01*
X54513Y-22021D01*
X54485Y-22050D01*
X54429Y-22078D01*
X54260Y-22078D01*
X54204Y-22050D01*
X54176Y-22021D01*
G54D13*
X57250Y-26500D02*
X57250Y-22500D01*
X53250Y-26750D02*
X53250Y-22500D01*
G54D14*
X48629Y-22200D02*
X48629Y-22550D01*
X49029Y-22250D02*
X49029Y-21450D01*
X49029Y-21450D02*
X48979Y-21450D01*
X48979Y-21450D02*
X48979Y-22250D01*
X48929Y-21250D02*
X48929Y-22450D01*
X49129Y-21850D02*
G75*
G03X49129Y-21850I-1000J0D01*
G74*
G01*
G54D15*
X51960Y-14168D02*
X51960Y-12188D01*
X51960Y-12188D02*
X52960Y-12188D01*
X52960Y-12188D02*
X52960Y-14188D01*
X52960Y-14188D02*
X51960Y-14188D01*
X52210Y-14188D02*
X51960Y-13938D01*
X58456Y-14168D02*
X58456Y-12188D01*
X58456Y-12188D02*
X59456Y-12188D01*
X59456Y-12188D02*
X59456Y-14188D01*
X59456Y-14188D02*
X58456Y-14188D01*
X58706Y-14188D02*
X58456Y-13938D01*
X53842Y-18791D02*
X55822Y-18791D01*
X55822Y-18791D02*
X55822Y-19791D01*
X55822Y-19791D02*
X53822Y-19791D01*
X53822Y-19791D02*
X53822Y-18791D01*
X53822Y-19041D02*
X54072Y-18791D01*
G54D16*
X62322Y-17535D02*
X47322Y-17535D01*
X47322Y-17535D02*
X47322Y-15535D01*
X47322Y-15535D02*
X62322Y-15535D01*
X62322Y-15535D02*
X62322Y-17535D01*
X62322Y-17035D02*
X61822Y-17035D01*
X61822Y-17035D02*
X61822Y-16035D01*
X61822Y-16035D02*
X62322Y-16035D01*
G54D10*
X64976Y-18208D02*
X64976Y-12208D01*
X64976Y-12208D02*
X53476Y-12208D01*
X53476Y-12208D02*
X53476Y-18208D01*
X53476Y-18208D02*
X64976Y-18208D01*
X64976Y-18208D02*
X62976Y-18208D01*
X62976Y-18208D02*
X62976Y-14208D01*
X62976Y-14208D02*
X64976Y-14208D01*
X64976Y-14208D02*
X64976Y-18208D01*
G54D17*
X61984Y-23901D02*
X64984Y-23901D01*
X64984Y-25901D02*
X61984Y-25901D01*
X61984Y-25901D02*
X61984Y-23901D01*
X64984Y-23901D02*
X64984Y-25901D01*
G54D16*
X60326Y-22047D02*
X61326Y-22047D01*
X60885Y-22047D02*
G75*
G03X60885Y-22047I-559J0D01*
G74*
G01*
G54D18*
X62976Y-22251D02*
X62976Y-21251D01*
X62976Y-21251D02*
X64976Y-21251D01*
X64976Y-21251D02*
X64976Y-22251D01*
X64976Y-22251D02*
X62976Y-22251D01*
X64976Y-22236D02*
X64976Y-23236D01*
X64976Y-23236D02*
X62976Y-23236D01*
X62976Y-23236D02*
X62976Y-22236D01*
X62976Y-22236D02*
X64976Y-22236D01*
G54D16*
X57657Y-12991D02*
X57736Y-13149D01*
X57736Y-13149D02*
X57776Y-13385D01*
X57776Y-13385D02*
X57736Y-13582D01*
X57736Y-13582D02*
X57579Y-13857D01*
X57579Y-13857D02*
X57342Y-14015D01*
X57342Y-14015D02*
X57106Y-14094D01*
X57106Y-14094D02*
X54508Y-14094D01*
X54508Y-14094D02*
X54232Y-14015D01*
X54232Y-14015D02*
X54075Y-13897D01*
X54075Y-13897D02*
X53917Y-13700D01*
X53917Y-13700D02*
X53838Y-13464D01*
X53838Y-13464D02*
X53838Y-13267D01*
X53838Y-13267D02*
X53917Y-13070D01*
X53917Y-13070D02*
X54114Y-12834D01*
X54114Y-12834D02*
X54311Y-12716D01*
X54311Y-12716D02*
X54508Y-12676D01*
X54547Y-12676D02*
X57146Y-12676D01*
X57146Y-12676D02*
X57303Y-12716D01*
X57303Y-12716D02*
X57500Y-12834D01*
X57500Y-12834D02*
X57697Y-13031D01*
X54551Y-12468D02*
X54370Y-12487D01*
X54370Y-12487D02*
X54213Y-12531D01*
X54213Y-12531D02*
X54043Y-12617D01*
X54043Y-12617D02*
X53929Y-12708D01*
X53929Y-12708D02*
X53799Y-12846D01*
X53799Y-12846D02*
X53685Y-13058D01*
X53685Y-13058D02*
X53634Y-13294D01*
X53634Y-13294D02*
X53634Y-13495D01*
X53634Y-13495D02*
X53701Y-13771D01*
X53701Y-13771D02*
X53858Y-14003D01*
X53858Y-14003D02*
X54039Y-14149D01*
X54039Y-14149D02*
X54205Y-14231D01*
X54205Y-14231D02*
X54382Y-14294D01*
X54382Y-14294D02*
X54555Y-14306D01*
X57445Y-14220D02*
X57594Y-14133D01*
X57594Y-14133D02*
X57720Y-14023D01*
X57720Y-14023D02*
X57819Y-13893D01*
X57819Y-13893D02*
X57937Y-13676D01*
X57937Y-13676D02*
X57980Y-13491D01*
X57980Y-13491D02*
X57988Y-13310D01*
X57988Y-13310D02*
X57953Y-13129D01*
X57953Y-13129D02*
X57878Y-12952D01*
X57878Y-12952D02*
X57736Y-12767D01*
X57736Y-12767D02*
X57598Y-12641D01*
X57598Y-12641D02*
X57445Y-12550D01*
X57445Y-12550D02*
X57276Y-12495D01*
X57276Y-12495D02*
X57102Y-12468D01*
X54547Y-14302D02*
X57087Y-14302D01*
X57087Y-14302D02*
X57252Y-14287D01*
X57252Y-14287D02*
X57445Y-14220D01*
X54547Y-12468D02*
X57087Y-12468D01*
G54D15*
X57250Y-25500D02*
X53250Y-25500D01*
X57250Y-26000D02*
X57250Y-23000D01*
X57250Y-23000D02*
X53250Y-23000D01*
X53250Y-23000D02*
X53250Y-26000D01*
X53250Y-26000D02*
X57250Y-26000D01*
X47250Y-26000D02*
X47250Y-23000D01*
X53250Y-26000D02*
X53250Y-23000D01*
X47250Y-25500D02*
X53250Y-25500D01*
X47250Y-23000D02*
X53250Y-23000D01*
X47250Y-26000D02*
X53250Y-26000D01*
X61250Y-25500D02*
X57250Y-25500D01*
X61250Y-26000D02*
X61250Y-23000D01*
X61250Y-23000D02*
X57250Y-23000D01*
X57250Y-23000D02*
X57250Y-26000D01*
X57250Y-26000D02*
X61250Y-26000D01*
G54D10*
X48877Y-11850D02*
X48562Y-12204D01*
X48917Y-11850D02*
X49232Y-12204D01*
X47145Y-13385D02*
X47145Y-12204D01*
X50688Y-13385D02*
X50688Y-12204D01*
X50688Y-12204D02*
X47145Y-12204D01*
X47342Y-13385D02*
X47342Y-13582D01*
X47342Y-13582D02*
X47539Y-13582D01*
X47539Y-13582D02*
X47539Y-13385D01*
X50492Y-13385D02*
X50492Y-13582D01*
X50492Y-13582D02*
X50295Y-13582D01*
X50295Y-13582D02*
X50295Y-13385D01*
X48720Y-10472D02*
X48129Y-11062D01*
X48917Y-11062D02*
X48129Y-11850D01*
X48917Y-11062D02*
X49704Y-11850D01*
X49704Y-11062D02*
X49114Y-10472D01*
X49704Y-12165D02*
X49704Y-10472D01*
X49704Y-10472D02*
X48917Y-10472D01*
X48917Y-12165D02*
X48917Y-10472D01*
X48917Y-10472D02*
X48129Y-10472D01*
X48129Y-10472D02*
X48129Y-12165D01*
X50688Y-13385D02*
X47145Y-13385D01*
G54D17*
X47917Y-13582D02*
X47917Y-13082D01*
X48917Y-13582D02*
X48917Y-13082D01*
X49917Y-13582D02*
X49917Y-13082D01*
G54D15*
X47439Y-20489D02*
X47410Y-20518D01*
X47325Y-20547D01*
X47267Y-20547D01*
X47182Y-20518D01*
X47125Y-20461D01*
X47096Y-20404D01*
X47067Y-20289D01*
X47067Y-20204D01*
X47096Y-20089D01*
X47125Y-20032D01*
X47182Y-19975D01*
X47267Y-19947D01*
X47325Y-19947D01*
X47410Y-19975D01*
X47439Y-20004D01*
X48010Y-20547D02*
X47667Y-20547D01*
X47839Y-20547D02*
X47839Y-19947D01*
X47782Y-20032D01*
X47725Y-20089D01*
X47667Y-20118D01*
G54D19*
X49479Y-21924D02*
X49254Y-21924D01*
X49367Y-21924D02*
X49367Y-21324D01*
X49329Y-21410D01*
X49292Y-21467D01*
X49254Y-21496D01*
X49723Y-21324D02*
X49760Y-21324D01*
X49798Y-21353D01*
X49817Y-21382D01*
X49835Y-21439D01*
X49854Y-21553D01*
X49854Y-21696D01*
X49835Y-21810D01*
X49817Y-21867D01*
X49798Y-21896D01*
X49760Y-21924D01*
X49723Y-21924D01*
X49685Y-21896D01*
X49667Y-21867D01*
X49648Y-21810D01*
X49629Y-21696D01*
X49629Y-21553D01*
X49648Y-21439D01*
X49667Y-21382D01*
X49685Y-21353D01*
X49723Y-21324D01*
X50192Y-21524D02*
X50192Y-21924D01*
X50023Y-21524D02*
X50023Y-21839D01*
X50042Y-21896D01*
X50079Y-21924D01*
X50135Y-21924D01*
X50173Y-21896D01*
X50192Y-21867D01*
X50510Y-21610D02*
X50379Y-21610D01*
X50379Y-21924D02*
X50379Y-21324D01*
X50567Y-21324D01*
G54D17*
X51409Y-14217D02*
X51390Y-14236D01*
X51333Y-14255D01*
X51295Y-14255D01*
X51238Y-14236D01*
X51200Y-14198D01*
X51181Y-14160D01*
X51162Y-14084D01*
X51162Y-14027D01*
X51181Y-13950D01*
X51200Y-13912D01*
X51238Y-13874D01*
X51295Y-13855D01*
X51333Y-13855D01*
X51390Y-13874D01*
X51409Y-13893D01*
X51562Y-13893D02*
X51581Y-13874D01*
X51619Y-13855D01*
X51714Y-13855D01*
X51752Y-13874D01*
X51771Y-13893D01*
X51790Y-13931D01*
X51790Y-13970D01*
X51771Y-14027D01*
X51543Y-14255D01*
X51790Y-14255D01*
X59972Y-14217D02*
X59953Y-14236D01*
X59896Y-14255D01*
X59858Y-14255D01*
X59801Y-14236D01*
X59763Y-14198D01*
X59744Y-14160D01*
X59725Y-14084D01*
X59725Y-14027D01*
X59744Y-13950D01*
X59763Y-13912D01*
X59801Y-13874D01*
X59858Y-13855D01*
X59896Y-13855D01*
X59953Y-13874D01*
X59972Y-13893D01*
X60106Y-13855D02*
X60353Y-13855D01*
X60220Y-14008D01*
X60277Y-14008D01*
X60315Y-14027D01*
X60334Y-14046D01*
X60353Y-14084D01*
X60353Y-14179D01*
X60334Y-14217D01*
X60315Y-14236D01*
X60277Y-14255D01*
X60163Y-14255D01*
X60125Y-14236D01*
X60106Y-14217D01*
X56232Y-19335D02*
X56213Y-19354D01*
X56156Y-19373D01*
X56118Y-19373D01*
X56061Y-19354D01*
X56023Y-19316D01*
X56003Y-19278D01*
X55984Y-19202D01*
X55984Y-19145D01*
X56003Y-19069D01*
X56023Y-19031D01*
X56061Y-18992D01*
X56118Y-18973D01*
X56156Y-18973D01*
X56213Y-18992D01*
X56232Y-19011D01*
X56575Y-19107D02*
X56575Y-19373D01*
X56480Y-18954D02*
X56384Y-19240D01*
X56632Y-19240D01*
G54D20*
X58883Y-16806D02*
X58883Y-16206D01*
X59354Y-16749D02*
X59333Y-16778D01*
X59269Y-16806D01*
X59226Y-16806D01*
X59162Y-16778D01*
X59119Y-16721D01*
X59097Y-16664D01*
X59076Y-16549D01*
X59076Y-16464D01*
X59097Y-16349D01*
X59119Y-16292D01*
X59162Y-16235D01*
X59226Y-16206D01*
X59269Y-16206D01*
X59333Y-16235D01*
X59354Y-16264D01*
X59783Y-16806D02*
X59526Y-16806D01*
X59654Y-16806D02*
X59654Y-16206D01*
X59612Y-16292D01*
X59569Y-16349D01*
X59526Y-16378D01*
G54D15*
G54D20*
X48519Y-16635D02*
X48733Y-16635D01*
X48476Y-16806D02*
X48626Y-16206D01*
X48776Y-16806D01*
X48862Y-16206D02*
X49119Y-16206D01*
X48990Y-16806D02*
X48990Y-16206D01*
X49269Y-16806D02*
X49269Y-16206D01*
X49419Y-16635D01*
X49569Y-16206D01*
X49569Y-16806D01*
X49783Y-16492D02*
X49933Y-16492D01*
X49997Y-16806D02*
X49783Y-16806D01*
X49783Y-16206D01*
X49997Y-16206D01*
X50426Y-16235D02*
X50383Y-16206D01*
X50319Y-16206D01*
X50254Y-16235D01*
X50212Y-16292D01*
X50190Y-16349D01*
X50169Y-16464D01*
X50169Y-16549D01*
X50190Y-16664D01*
X50212Y-16721D01*
X50254Y-16778D01*
X50319Y-16806D01*
X50362Y-16806D01*
X50426Y-16778D01*
X50447Y-16749D01*
X50447Y-16549D01*
X50362Y-16549D01*
X50619Y-16635D02*
X50833Y-16635D01*
X50576Y-16806D02*
X50726Y-16206D01*
X50876Y-16806D01*
X50983Y-16206D02*
X51262Y-16206D01*
X51112Y-16435D01*
X51176Y-16435D01*
X51219Y-16464D01*
X51240Y-16492D01*
X51262Y-16549D01*
X51262Y-16692D01*
X51240Y-16749D01*
X51219Y-16778D01*
X51176Y-16806D01*
X51047Y-16806D01*
X51004Y-16778D01*
X50983Y-16749D01*
X51433Y-16264D02*
X51454Y-16235D01*
X51497Y-16206D01*
X51604Y-16206D01*
X51647Y-16235D01*
X51669Y-16264D01*
X51690Y-16321D01*
X51690Y-16378D01*
X51669Y-16464D01*
X51412Y-16806D01*
X51690Y-16806D01*
X51947Y-16464D02*
X51904Y-16435D01*
X51883Y-16406D01*
X51862Y-16349D01*
X51862Y-16321D01*
X51883Y-16264D01*
X51904Y-16235D01*
X51947Y-16206D01*
X52033Y-16206D01*
X52076Y-16235D01*
X52097Y-16264D01*
X52119Y-16321D01*
X52119Y-16349D01*
X52097Y-16406D01*
X52076Y-16435D01*
X52033Y-16464D01*
X51947Y-16464D01*
X51904Y-16492D01*
X51883Y-16521D01*
X51862Y-16578D01*
X51862Y-16692D01*
X51883Y-16749D01*
X51904Y-16778D01*
X51947Y-16806D01*
X52033Y-16806D01*
X52076Y-16778D01*
X52097Y-16749D01*
X52119Y-16692D01*
X52119Y-16578D01*
X52097Y-16521D01*
X52076Y-16492D01*
X52033Y-16464D01*
X52312Y-16578D02*
X52654Y-16578D01*
X52869Y-16806D02*
X52869Y-16206D01*
X53040Y-16206D01*
X53083Y-16235D01*
X53104Y-16264D01*
X53126Y-16321D01*
X53126Y-16406D01*
X53104Y-16464D01*
X53083Y-16492D01*
X53040Y-16521D01*
X52869Y-16521D01*
G54D15*
G54D10*
X63563Y-13981D02*
X63170Y-13981D01*
X63563Y-13756D01*
X63170Y-13756D01*
X63563Y-13362D02*
X63563Y-13587D01*
X63563Y-13474D02*
X63170Y-13474D01*
X63226Y-13512D01*
X63263Y-13549D01*
X63282Y-13587D01*
X62973Y-16394D02*
X62579Y-16394D01*
X62973Y-16169D01*
X62579Y-16169D01*
X62973Y-15757D02*
X62785Y-15888D01*
X62973Y-15982D02*
X62579Y-15982D01*
X62579Y-15832D01*
X62598Y-15794D01*
X62617Y-15776D01*
X62654Y-15757D01*
X62710Y-15757D01*
X62748Y-15776D01*
X62767Y-15794D01*
X62785Y-15832D01*
X62785Y-15982D01*
X62767Y-15457D02*
X62767Y-15588D01*
X62973Y-15588D02*
X62579Y-15588D01*
X62579Y-15401D01*
X62617Y-15269D02*
X62598Y-15251D01*
X62579Y-15213D01*
X62579Y-15119D01*
X62598Y-15082D01*
X62617Y-15063D01*
X62654Y-15044D01*
X62692Y-15044D01*
X62748Y-15063D01*
X62973Y-15288D01*
X62973Y-15044D01*
X62710Y-14707D02*
X62973Y-14707D01*
X62560Y-14801D02*
X62842Y-14895D01*
X62842Y-14651D01*
X62973Y-14313D02*
X62973Y-14501D01*
X62579Y-14501D01*
X62579Y-14107D02*
X62579Y-14070D01*
X62598Y-14032D01*
X62617Y-14013D01*
X62654Y-13995D01*
X62729Y-13976D01*
X62823Y-13976D01*
X62898Y-13995D01*
X62935Y-14013D01*
X62954Y-14032D01*
X62973Y-14070D01*
X62973Y-14107D01*
X62954Y-14145D01*
X62935Y-14163D01*
X62898Y-14182D01*
X62823Y-14201D01*
X62729Y-14201D01*
X62654Y-14182D01*
X62617Y-14163D01*
X62598Y-14145D01*
X62579Y-14107D01*
X62973Y-13601D02*
X62973Y-13826D01*
X62973Y-13713D02*
X62579Y-13713D01*
X62635Y-13751D01*
X62673Y-13788D01*
X62692Y-13826D01*
X62823Y-13432D02*
X62823Y-13132D01*
X62973Y-13282D02*
X62673Y-13282D01*
G54D17*
X63939Y-26332D02*
X63939Y-25932D01*
X64091Y-25932D01*
X64129Y-25951D01*
X64148Y-25970D01*
X64167Y-26008D01*
X64167Y-26065D01*
X64148Y-26103D01*
X64129Y-26123D01*
X64091Y-26142D01*
X63939Y-26142D01*
X64548Y-26332D02*
X64319Y-26332D01*
X64434Y-26332D02*
X64434Y-25932D01*
X64396Y-25989D01*
X64358Y-26027D01*
X64319Y-26046D01*
X60343Y-23296D02*
X60176Y-23034D01*
X60057Y-23296D02*
X60057Y-22746D01*
X60248Y-22746D01*
X60295Y-22772D01*
X60319Y-22798D01*
X60343Y-22850D01*
X60343Y-22929D01*
X60319Y-22981D01*
X60295Y-23007D01*
X60248Y-23034D01*
X60057Y-23034D01*
X60819Y-23296D02*
X60533Y-23296D01*
X60676Y-23296D02*
X60676Y-22746D01*
X60629Y-22824D01*
X60581Y-22877D01*
X60533Y-22903D01*
G54D18*
X62562Y-22130D02*
X62562Y-21959D01*
X62862Y-22044D02*
X62562Y-22044D01*
X62862Y-21859D02*
X62562Y-21859D01*
X62562Y-21744D01*
X62576Y-21716D01*
X62590Y-21701D01*
X62619Y-21687D01*
X62662Y-21687D01*
X62690Y-21701D01*
X62704Y-21716D01*
X62719Y-21744D01*
X62719Y-21859D01*
X62862Y-21401D02*
X62862Y-21573D01*
X62862Y-21487D02*
X62562Y-21487D01*
X62604Y-21516D01*
X62633Y-21544D01*
X62647Y-21573D01*
X62562Y-23114D02*
X62562Y-22943D01*
X62862Y-23029D02*
X62562Y-23029D01*
X62862Y-22843D02*
X62562Y-22843D01*
X62562Y-22729D01*
X62576Y-22700D01*
X62590Y-22686D01*
X62619Y-22671D01*
X62662Y-22671D01*
X62690Y-22686D01*
X62704Y-22700D01*
X62719Y-22729D01*
X62719Y-22843D01*
X62590Y-22557D02*
X62576Y-22543D01*
X62562Y-22514D01*
X62562Y-22443D01*
X62576Y-22414D01*
X62590Y-22400D01*
X62619Y-22386D01*
X62647Y-22386D01*
X62690Y-22400D01*
X62862Y-22571D01*
X62862Y-22386D01*
G54D15*
X53257Y-12387D02*
X53257Y-12673D01*
X53057Y-12073D02*
X53257Y-12387D01*
X53457Y-12073D01*
X53971Y-12673D02*
X53629Y-12673D01*
X53800Y-12673D02*
X53800Y-12073D01*
X53743Y-12158D01*
X53686Y-12215D01*
X53629Y-12244D01*
X55114Y-22210D02*
X55114Y-22639D01*
X55086Y-22725D01*
X55029Y-22782D01*
X54943Y-22810D01*
X54886Y-22810D01*
X55714Y-22810D02*
X55372Y-22810D01*
X55543Y-22810D02*
X55543Y-22210D01*
X55486Y-22296D01*
X55429Y-22353D01*
X55372Y-22382D01*
X53107Y-26742D02*
X53164Y-26771D01*
X53278Y-26771D01*
X53335Y-26742D01*
X53364Y-26685D01*
X53364Y-26657D01*
X53335Y-26600D01*
X53278Y-26571D01*
X53192Y-26571D01*
X53135Y-26542D01*
X53107Y-26485D01*
X53107Y-26457D01*
X53135Y-26400D01*
X53192Y-26371D01*
X53278Y-26371D01*
X53335Y-26400D01*
X53850Y-26742D02*
X53792Y-26771D01*
X53678Y-26771D01*
X53621Y-26742D01*
X53592Y-26685D01*
X53592Y-26457D01*
X53621Y-26400D01*
X53678Y-26371D01*
X53792Y-26371D01*
X53850Y-26400D01*
X53878Y-26457D01*
X53878Y-26514D01*
X53592Y-26571D01*
X54135Y-26371D02*
X54135Y-26771D01*
X54135Y-26428D02*
X54164Y-26400D01*
X54221Y-26371D01*
X54307Y-26371D01*
X54364Y-26400D01*
X54392Y-26457D01*
X54392Y-26771D01*
X54650Y-26742D02*
X54707Y-26771D01*
X54821Y-26771D01*
X54878Y-26742D01*
X54907Y-26685D01*
X54907Y-26657D01*
X54878Y-26600D01*
X54821Y-26571D01*
X54735Y-26571D01*
X54678Y-26542D01*
X54650Y-26485D01*
X54650Y-26457D01*
X54678Y-26400D01*
X54735Y-26371D01*
X54821Y-26371D01*
X54878Y-26400D01*
X55021Y-26828D02*
X55478Y-26828D01*
X55564Y-26371D02*
X55678Y-26771D01*
X55792Y-26485D01*
X55907Y-26771D01*
X56021Y-26371D01*
X56250Y-26771D02*
X56250Y-26171D01*
X56250Y-26400D02*
X56307Y-26371D01*
X56421Y-26371D01*
X56478Y-26400D01*
X56507Y-26428D01*
X56535Y-26485D01*
X56535Y-26657D01*
X56507Y-26714D01*
X56478Y-26742D01*
X56421Y-26771D01*
X56307Y-26771D01*
X56250Y-26742D01*
X56792Y-26771D02*
X56792Y-26371D01*
X56792Y-26485D02*
X56821Y-26428D01*
X56850Y-26400D01*
X56907Y-26371D01*
X56964Y-26371D01*
X57164Y-26771D02*
X57164Y-26171D01*
X57221Y-26542D02*
X57392Y-26771D01*
X57392Y-26371D02*
X57164Y-26600D01*
X50050Y-22171D02*
X50050Y-22600D01*
X50021Y-22685D01*
X49964Y-22742D01*
X49878Y-22771D01*
X49821Y-22771D01*
X50307Y-22228D02*
X50335Y-22200D01*
X50392Y-22171D01*
X50535Y-22171D01*
X50592Y-22200D01*
X50621Y-22228D01*
X50650Y-22285D01*
X50650Y-22342D01*
X50621Y-22428D01*
X50278Y-22771D01*
X50650Y-22771D01*
X48521Y-26742D02*
X48578Y-26771D01*
X48692Y-26771D01*
X48750Y-26742D01*
X48778Y-26685D01*
X48778Y-26657D01*
X48750Y-26600D01*
X48692Y-26571D01*
X48607Y-26571D01*
X48550Y-26542D01*
X48521Y-26485D01*
X48521Y-26457D01*
X48550Y-26400D01*
X48607Y-26371D01*
X48692Y-26371D01*
X48750Y-26400D01*
X49264Y-26742D02*
X49207Y-26771D01*
X49092Y-26771D01*
X49035Y-26742D01*
X49007Y-26685D01*
X49007Y-26457D01*
X49035Y-26400D01*
X49092Y-26371D01*
X49207Y-26371D01*
X49264Y-26400D01*
X49292Y-26457D01*
X49292Y-26514D01*
X49007Y-26571D01*
X49550Y-26371D02*
X49550Y-26771D01*
X49550Y-26428D02*
X49578Y-26400D01*
X49635Y-26371D01*
X49721Y-26371D01*
X49778Y-26400D01*
X49807Y-26457D01*
X49807Y-26771D01*
X50064Y-26742D02*
X50121Y-26771D01*
X50235Y-26771D01*
X50292Y-26742D01*
X50321Y-26685D01*
X50321Y-26657D01*
X50292Y-26600D01*
X50235Y-26571D01*
X50150Y-26571D01*
X50092Y-26542D01*
X50064Y-26485D01*
X50064Y-26457D01*
X50092Y-26400D01*
X50150Y-26371D01*
X50235Y-26371D01*
X50292Y-26400D01*
X50435Y-26828D02*
X50892Y-26828D01*
X51035Y-26371D02*
X51035Y-26971D01*
X51035Y-26400D02*
X51092Y-26371D01*
X51207Y-26371D01*
X51264Y-26400D01*
X51292Y-26428D01*
X51321Y-26485D01*
X51321Y-26657D01*
X51292Y-26714D01*
X51264Y-26742D01*
X51207Y-26771D01*
X51092Y-26771D01*
X51035Y-26742D01*
X51578Y-26771D02*
X51578Y-26371D01*
X51578Y-26171D02*
X51550Y-26200D01*
X51578Y-26228D01*
X51607Y-26200D01*
X51578Y-26171D01*
X51578Y-26228D01*
X51864Y-26771D02*
X51864Y-26371D01*
X51864Y-26485D02*
X51892Y-26428D01*
X51921Y-26400D01*
X51978Y-26371D01*
X52035Y-26371D01*
X59050Y-22171D02*
X59050Y-22600D01*
X59021Y-22685D01*
X58964Y-22742D01*
X58878Y-22771D01*
X58821Y-22771D01*
X59278Y-22171D02*
X59650Y-22171D01*
X59450Y-22400D01*
X59535Y-22400D01*
X59592Y-22428D01*
X59621Y-22457D01*
X59650Y-22514D01*
X59650Y-22657D01*
X59621Y-22714D01*
X59592Y-22742D01*
X59535Y-22771D01*
X59364Y-22771D01*
X59307Y-22742D01*
X59278Y-22714D01*
X58014Y-26742D02*
X58071Y-26771D01*
X58185Y-26771D01*
X58242Y-26742D01*
X58271Y-26685D01*
X58271Y-26657D01*
X58242Y-26600D01*
X58185Y-26571D01*
X58100Y-26571D01*
X58042Y-26542D01*
X58014Y-26485D01*
X58014Y-26457D01*
X58042Y-26400D01*
X58100Y-26371D01*
X58185Y-26371D01*
X58242Y-26400D01*
X58757Y-26742D02*
X58700Y-26771D01*
X58585Y-26771D01*
X58528Y-26742D01*
X58500Y-26685D01*
X58500Y-26457D01*
X58528Y-26400D01*
X58585Y-26371D01*
X58700Y-26371D01*
X58757Y-26400D01*
X58785Y-26457D01*
X58785Y-26514D01*
X58500Y-26571D01*
X59042Y-26371D02*
X59042Y-26771D01*
X59042Y-26428D02*
X59071Y-26400D01*
X59128Y-26371D01*
X59214Y-26371D01*
X59271Y-26400D01*
X59300Y-26457D01*
X59300Y-26771D01*
X59557Y-26742D02*
X59614Y-26771D01*
X59728Y-26771D01*
X59785Y-26742D01*
X59814Y-26685D01*
X59814Y-26657D01*
X59785Y-26600D01*
X59728Y-26571D01*
X59642Y-26571D01*
X59585Y-26542D01*
X59557Y-26485D01*
X59557Y-26457D01*
X59585Y-26400D01*
X59642Y-26371D01*
X59728Y-26371D01*
X59785Y-26400D01*
X59928Y-26828D02*
X60385Y-26828D01*
X60785Y-26742D02*
X60728Y-26771D01*
X60614Y-26771D01*
X60557Y-26742D01*
X60528Y-26714D01*
X60500Y-26657D01*
X60500Y-26485D01*
X60528Y-26428D01*
X60557Y-26400D01*
X60614Y-26371D01*
X60728Y-26371D01*
X60785Y-26400D01*
X60957Y-26371D02*
X61185Y-26371D01*
X61042Y-26171D02*
X61042Y-26685D01*
X61071Y-26742D01*
X61128Y-26771D01*
X61185Y-26771D01*
X61642Y-26742D02*
X61585Y-26771D01*
X61471Y-26771D01*
X61414Y-26742D01*
X61385Y-26714D01*
X61357Y-26657D01*
X61357Y-26485D01*
X61385Y-26428D01*
X61414Y-26400D01*
X61471Y-26371D01*
X61585Y-26371D01*
X61642Y-26400D01*
X61814Y-26371D02*
X62042Y-26371D01*
X61900Y-26171D02*
X61900Y-26685D01*
X61928Y-26742D01*
X61985Y-26771D01*
X62042Y-26771D01*
G54D14*
X48383Y-12644D02*
X48441Y-12663D01*
X48536Y-12663D01*
X48574Y-12644D01*
X48593Y-12625D01*
X48612Y-12587D01*
X48612Y-12549D01*
X48593Y-12511D01*
X48574Y-12492D01*
X48536Y-12473D01*
X48460Y-12454D01*
X48422Y-12435D01*
X48403Y-12416D01*
X48383Y-12377D01*
X48383Y-12339D01*
X48403Y-12301D01*
X48422Y-12282D01*
X48460Y-12263D01*
X48555Y-12263D01*
X48612Y-12282D01*
X48745Y-12263D02*
X48841Y-12663D01*
X48917Y-12377D01*
X48993Y-12663D01*
X49088Y-12263D01*
X49222Y-12301D02*
X49241Y-12282D01*
X49279Y-12263D01*
X49374Y-12263D01*
X49412Y-12282D01*
X49431Y-12301D01*
X49450Y-12339D01*
X49450Y-12377D01*
X49431Y-12435D01*
X49203Y-12663D01*
X49450Y-12663D01*
X47428Y-14255D02*
X47390Y-14236D01*
X47371Y-14217D01*
X47352Y-14179D01*
X47352Y-14065D01*
X47371Y-14027D01*
X47390Y-14008D01*
X47428Y-13989D01*
X47485Y-13989D01*
X47523Y-14008D01*
X47542Y-14027D01*
X47561Y-14065D01*
X47561Y-14179D01*
X47542Y-14217D01*
X47523Y-14236D01*
X47485Y-14255D01*
X47428Y-14255D01*
X47733Y-13989D02*
X47733Y-14255D01*
X47733Y-14027D02*
X47752Y-14008D01*
X47790Y-13989D01*
X47847Y-13989D01*
X47885Y-14008D01*
X47904Y-14046D01*
X47904Y-14255D01*
X48095Y-14103D02*
X48399Y-14103D01*
X48571Y-14236D02*
X48609Y-14255D01*
X48685Y-14255D01*
X48723Y-14236D01*
X48742Y-14198D01*
X48742Y-14179D01*
X48723Y-14141D01*
X48685Y-14122D01*
X48628Y-14122D01*
X48590Y-14103D01*
X48571Y-14065D01*
X48571Y-14046D01*
X48590Y-14008D01*
X48628Y-13989D01*
X48685Y-13989D01*
X48723Y-14008D01*
X48876Y-13989D02*
X48952Y-14255D01*
X49028Y-14065D01*
X49104Y-14255D01*
X49180Y-13989D01*
X49333Y-14255D02*
X49333Y-13989D01*
X49333Y-13855D02*
X49314Y-13874D01*
X49333Y-13893D01*
X49352Y-13874D01*
X49333Y-13855D01*
X49333Y-13893D01*
X49466Y-13989D02*
X49618Y-13989D01*
X49523Y-13855D02*
X49523Y-14198D01*
X49542Y-14236D01*
X49580Y-14255D01*
X49618Y-14255D01*
X49923Y-14236D02*
X49885Y-14255D01*
X49809Y-14255D01*
X49771Y-14236D01*
X49752Y-14217D01*
X49733Y-14179D01*
X49733Y-14065D01*
X49752Y-14027D01*
X49771Y-14008D01*
X49809Y-13989D01*
X49885Y-13989D01*
X49923Y-14008D01*
X50095Y-14255D02*
X50095Y-13855D01*
X50266Y-14255D02*
X50266Y-14046D01*
X50247Y-14008D01*
X50209Y-13989D01*
X50152Y-13989D01*
X50114Y-14008D01*
X50095Y-14027D01*
M02*
