%FSLAX34Y34*%
G04 Gerber Fmt 3.4, Leading zero omitted, Abs format*
G04 (created by PCBNEW (2013-11-19 BZR 4491)-product) date Thu 21 Nov 2013 01:11:00 GMT*
%MOIN*%
G01*
G70*
G90*
G04 APERTURE LIST*
%ADD10C,0.005906*%
%ADD11C,0.011811*%
%ADD12C,0.015748*%
%ADD13R,0.078700X0.078700*%
%ADD14C,0.078700*%
%ADD15C,0.055000*%
%ADD16R,0.055000X0.055000*%
%ADD17R,0.059055X0.059055*%
%ADD18C,0.059055*%
%ADD19R,0.060000X0.060000*%
%ADD20C,0.060000*%
%ADD21C,0.059100*%
%ADD22R,0.100000X0.100000*%
%ADD23C,0.100000*%
%ADD24C,0.090000*%
%ADD25C,0.010000*%
G04 APERTURE END LIST*
G54D10*
X69685Y-65357D02*
X69685Y-77955D01*
X112205Y-77955D01*
X112205Y-65357D01*
X69685Y-65357D01*
X3937Y-3937D02*
X3937Y-78742D01*
X112992Y-78742D01*
X112992Y-3937D01*
X3937Y-3937D01*
X4724Y-4724D02*
X4724Y-77955D01*
X112205Y-77955D01*
X112205Y-4724D01*
X4724Y-4724D01*
X23622Y-4724D02*
X23622Y-3937D01*
X43307Y-4724D02*
X43307Y-3937D01*
X62992Y-4724D02*
X62992Y-3937D01*
X82677Y-4724D02*
X82677Y-3937D01*
X102362Y-4724D02*
X102362Y-3937D01*
X14169Y-4562D02*
X13877Y-4562D01*
X14023Y-4562D02*
X14023Y-4050D01*
X13974Y-4123D01*
X13925Y-4172D01*
X13877Y-4196D01*
X33562Y-4099D02*
X33586Y-4074D01*
X33635Y-4050D01*
X33757Y-4050D01*
X33805Y-4074D01*
X33830Y-4099D01*
X33854Y-4147D01*
X33854Y-4196D01*
X33830Y-4269D01*
X33537Y-4562D01*
X33854Y-4562D01*
X53222Y-4050D02*
X53539Y-4050D01*
X53368Y-4245D01*
X53442Y-4245D01*
X53490Y-4269D01*
X53515Y-4294D01*
X53539Y-4342D01*
X53539Y-4464D01*
X53515Y-4513D01*
X53490Y-4537D01*
X53442Y-4562D01*
X53295Y-4562D01*
X53247Y-4537D01*
X53222Y-4513D01*
X73175Y-4221D02*
X73175Y-4562D01*
X73053Y-4026D02*
X72932Y-4391D01*
X73248Y-4391D01*
X92885Y-4050D02*
X92641Y-4050D01*
X92617Y-4294D01*
X92641Y-4269D01*
X92690Y-4245D01*
X92812Y-4245D01*
X92860Y-4269D01*
X92885Y-4294D01*
X92909Y-4342D01*
X92909Y-4464D01*
X92885Y-4513D01*
X92860Y-4537D01*
X92812Y-4562D01*
X92690Y-4562D01*
X92641Y-4537D01*
X92617Y-4513D01*
X112545Y-4050D02*
X112448Y-4050D01*
X112399Y-4074D01*
X112375Y-4099D01*
X112326Y-4172D01*
X112302Y-4269D01*
X112302Y-4464D01*
X112326Y-4513D01*
X112350Y-4537D01*
X112399Y-4562D01*
X112497Y-4562D01*
X112545Y-4537D01*
X112570Y-4513D01*
X112594Y-4464D01*
X112594Y-4342D01*
X112570Y-4294D01*
X112545Y-4269D01*
X112497Y-4245D01*
X112399Y-4245D01*
X112350Y-4269D01*
X112326Y-4294D01*
X112302Y-4342D01*
X23622Y-77955D02*
X23622Y-78742D01*
X43307Y-77955D02*
X43307Y-78742D01*
X62992Y-77955D02*
X62992Y-78742D01*
X82677Y-77955D02*
X82677Y-78742D01*
X102362Y-77955D02*
X102362Y-78742D01*
X14169Y-78580D02*
X13877Y-78580D01*
X14023Y-78580D02*
X14023Y-78069D01*
X13974Y-78142D01*
X13925Y-78190D01*
X13877Y-78215D01*
X33562Y-78117D02*
X33586Y-78093D01*
X33635Y-78069D01*
X33757Y-78069D01*
X33805Y-78093D01*
X33830Y-78117D01*
X33854Y-78166D01*
X33854Y-78215D01*
X33830Y-78288D01*
X33537Y-78580D01*
X33854Y-78580D01*
X53222Y-78069D02*
X53539Y-78069D01*
X53368Y-78263D01*
X53442Y-78263D01*
X53490Y-78288D01*
X53515Y-78312D01*
X53539Y-78361D01*
X53539Y-78483D01*
X53515Y-78532D01*
X53490Y-78556D01*
X53442Y-78580D01*
X53295Y-78580D01*
X53247Y-78556D01*
X53222Y-78532D01*
X73175Y-78239D02*
X73175Y-78580D01*
X73053Y-78044D02*
X72932Y-78410D01*
X73248Y-78410D01*
X92885Y-78069D02*
X92641Y-78069D01*
X92617Y-78312D01*
X92641Y-78288D01*
X92690Y-78263D01*
X92812Y-78263D01*
X92860Y-78288D01*
X92885Y-78312D01*
X92909Y-78361D01*
X92909Y-78483D01*
X92885Y-78532D01*
X92860Y-78556D01*
X92812Y-78580D01*
X92690Y-78580D01*
X92641Y-78556D01*
X92617Y-78532D01*
X112545Y-78069D02*
X112448Y-78069D01*
X112399Y-78093D01*
X112375Y-78117D01*
X112326Y-78190D01*
X112302Y-78288D01*
X112302Y-78483D01*
X112326Y-78532D01*
X112350Y-78556D01*
X112399Y-78580D01*
X112497Y-78580D01*
X112545Y-78556D01*
X112570Y-78532D01*
X112594Y-78483D01*
X112594Y-78361D01*
X112570Y-78312D01*
X112545Y-78288D01*
X112497Y-78263D01*
X112399Y-78263D01*
X112350Y-78288D01*
X112326Y-78312D01*
X112302Y-78361D01*
X3937Y-23622D02*
X4724Y-23622D01*
X3937Y-43307D02*
X4724Y-43307D01*
X3937Y-62992D02*
X4724Y-62992D01*
X4208Y-13864D02*
X4452Y-13864D01*
X4160Y-14011D02*
X4330Y-13499D01*
X4501Y-14011D01*
X4367Y-33428D02*
X4440Y-33452D01*
X4464Y-33476D01*
X4489Y-33525D01*
X4489Y-33598D01*
X4464Y-33647D01*
X4440Y-33671D01*
X4391Y-33696D01*
X4196Y-33696D01*
X4196Y-33184D01*
X4367Y-33184D01*
X4416Y-33208D01*
X4440Y-33233D01*
X4464Y-33281D01*
X4464Y-33330D01*
X4440Y-33379D01*
X4416Y-33403D01*
X4367Y-33428D01*
X4196Y-33428D01*
X4489Y-53332D02*
X4464Y-53356D01*
X4391Y-53381D01*
X4342Y-53381D01*
X4269Y-53356D01*
X4221Y-53308D01*
X4196Y-53259D01*
X4172Y-53161D01*
X4172Y-53088D01*
X4196Y-52991D01*
X4221Y-52942D01*
X4269Y-52893D01*
X4342Y-52869D01*
X4391Y-52869D01*
X4464Y-52893D01*
X4489Y-52918D01*
X4196Y-73066D02*
X4196Y-72554D01*
X4318Y-72554D01*
X4391Y-72578D01*
X4440Y-72627D01*
X4464Y-72676D01*
X4489Y-72773D01*
X4489Y-72846D01*
X4464Y-72944D01*
X4440Y-72993D01*
X4391Y-73041D01*
X4318Y-73066D01*
X4196Y-73066D01*
X112992Y-23622D02*
X112205Y-23622D01*
X112992Y-43307D02*
X112205Y-43307D01*
X112992Y-62992D02*
X112205Y-62992D01*
X112477Y-13864D02*
X112721Y-13864D01*
X112428Y-14011D02*
X112599Y-13499D01*
X112769Y-14011D01*
X112635Y-33428D02*
X112708Y-33452D01*
X112733Y-33476D01*
X112757Y-33525D01*
X112757Y-33598D01*
X112733Y-33647D01*
X112708Y-33671D01*
X112660Y-33696D01*
X112465Y-33696D01*
X112465Y-33184D01*
X112635Y-33184D01*
X112684Y-33208D01*
X112708Y-33233D01*
X112733Y-33281D01*
X112733Y-33330D01*
X112708Y-33379D01*
X112684Y-33403D01*
X112635Y-33428D01*
X112465Y-33428D01*
X112757Y-53332D02*
X112733Y-53356D01*
X112660Y-53381D01*
X112611Y-53381D01*
X112538Y-53356D01*
X112489Y-53308D01*
X112465Y-53259D01*
X112440Y-53161D01*
X112440Y-53088D01*
X112465Y-52991D01*
X112489Y-52942D01*
X112538Y-52893D01*
X112611Y-52869D01*
X112660Y-52869D01*
X112733Y-52893D01*
X112757Y-52918D01*
X112465Y-73066D02*
X112465Y-72554D01*
X112587Y-72554D01*
X112660Y-72578D01*
X112708Y-72627D01*
X112733Y-72676D01*
X112757Y-72773D01*
X112757Y-72846D01*
X112733Y-72944D01*
X112708Y-72993D01*
X112660Y-73041D01*
X112587Y-73066D01*
X112465Y-73066D01*
X78881Y-76293D02*
X78881Y-75703D01*
X79022Y-75703D01*
X79106Y-75731D01*
X79162Y-75787D01*
X79190Y-75843D01*
X79219Y-75956D01*
X79219Y-76040D01*
X79190Y-76153D01*
X79162Y-76209D01*
X79106Y-76265D01*
X79022Y-76293D01*
X78881Y-76293D01*
X79725Y-76293D02*
X79725Y-75984D01*
X79697Y-75928D01*
X79640Y-75899D01*
X79528Y-75899D01*
X79472Y-75928D01*
X79725Y-76265D02*
X79669Y-76293D01*
X79528Y-76293D01*
X79472Y-76265D01*
X79444Y-76209D01*
X79444Y-76153D01*
X79472Y-76096D01*
X79528Y-76068D01*
X79669Y-76068D01*
X79725Y-76040D01*
X79922Y-75899D02*
X80147Y-75899D01*
X80006Y-75703D02*
X80006Y-76209D01*
X80034Y-76265D01*
X80090Y-76293D01*
X80147Y-76293D01*
X80568Y-76265D02*
X80512Y-76293D01*
X80400Y-76293D01*
X80343Y-76265D01*
X80315Y-76209D01*
X80315Y-75984D01*
X80343Y-75928D01*
X80400Y-75899D01*
X80512Y-75899D01*
X80568Y-75928D01*
X80597Y-75984D01*
X80597Y-76040D01*
X80315Y-76096D01*
X80850Y-76237D02*
X80878Y-76265D01*
X80850Y-76293D01*
X80822Y-76265D01*
X80850Y-76237D01*
X80850Y-76293D01*
X80850Y-75928D02*
X80878Y-75956D01*
X80850Y-75984D01*
X80822Y-75956D01*
X80850Y-75928D01*
X80850Y-75984D01*
X69685Y-76577D02*
X112205Y-76577D01*
X70220Y-77395D02*
X70220Y-76805D01*
X70557Y-77395D02*
X70304Y-77058D01*
X70557Y-76805D02*
X70220Y-77142D01*
X70810Y-77395D02*
X70810Y-77002D01*
X70810Y-76805D02*
X70782Y-76833D01*
X70810Y-76861D01*
X70838Y-76833D01*
X70810Y-76805D01*
X70810Y-76861D01*
X71429Y-77339D02*
X71401Y-77367D01*
X71316Y-77395D01*
X71260Y-77395D01*
X71176Y-77367D01*
X71120Y-77311D01*
X71091Y-77255D01*
X71063Y-77142D01*
X71063Y-77058D01*
X71091Y-76946D01*
X71120Y-76889D01*
X71176Y-76833D01*
X71260Y-76805D01*
X71316Y-76805D01*
X71401Y-76833D01*
X71429Y-76861D01*
X71935Y-77395D02*
X71935Y-77086D01*
X71907Y-77030D01*
X71851Y-77002D01*
X71738Y-77002D01*
X71682Y-77030D01*
X71935Y-77367D02*
X71879Y-77395D01*
X71738Y-77395D01*
X71682Y-77367D01*
X71654Y-77311D01*
X71654Y-77255D01*
X71682Y-77199D01*
X71738Y-77171D01*
X71879Y-77171D01*
X71935Y-77142D01*
X72469Y-77395D02*
X72469Y-76805D01*
X72469Y-77367D02*
X72413Y-77395D01*
X72301Y-77395D01*
X72244Y-77367D01*
X72216Y-77339D01*
X72188Y-77283D01*
X72188Y-77114D01*
X72216Y-77058D01*
X72244Y-77030D01*
X72301Y-77002D01*
X72413Y-77002D01*
X72469Y-77030D01*
X73201Y-77086D02*
X73397Y-77086D01*
X73482Y-77395D02*
X73201Y-77395D01*
X73201Y-76805D01*
X73482Y-76805D01*
X73735Y-77339D02*
X73763Y-77367D01*
X73735Y-77395D01*
X73707Y-77367D01*
X73735Y-77339D01*
X73735Y-77395D01*
X74016Y-77395D02*
X74016Y-76805D01*
X74157Y-76805D01*
X74241Y-76833D01*
X74297Y-76889D01*
X74325Y-76946D01*
X74354Y-77058D01*
X74354Y-77142D01*
X74325Y-77255D01*
X74297Y-77311D01*
X74241Y-77367D01*
X74157Y-77395D01*
X74016Y-77395D01*
X74607Y-77339D02*
X74635Y-77367D01*
X74607Y-77395D01*
X74579Y-77367D01*
X74607Y-77339D01*
X74607Y-77395D01*
X74860Y-77227D02*
X75141Y-77227D01*
X74804Y-77395D02*
X75000Y-76805D01*
X75197Y-77395D01*
X75394Y-77339D02*
X75422Y-77367D01*
X75394Y-77395D01*
X75366Y-77367D01*
X75394Y-77339D01*
X75394Y-77395D01*
X76575Y-77002D02*
X76575Y-77592D01*
X76575Y-77030D02*
X76631Y-77002D01*
X76744Y-77002D01*
X76800Y-77030D01*
X76828Y-77058D01*
X76856Y-77114D01*
X76856Y-77283D01*
X76828Y-77339D01*
X76800Y-77367D01*
X76744Y-77395D01*
X76631Y-77395D01*
X76575Y-77367D01*
X77363Y-77367D02*
X77306Y-77395D01*
X77194Y-77395D01*
X77138Y-77367D01*
X77109Y-77339D01*
X77081Y-77283D01*
X77081Y-77114D01*
X77109Y-77058D01*
X77138Y-77030D01*
X77194Y-77002D01*
X77306Y-77002D01*
X77363Y-77030D01*
X77616Y-77395D02*
X77616Y-76805D01*
X77616Y-77030D02*
X77672Y-77002D01*
X77784Y-77002D01*
X77841Y-77030D01*
X77869Y-77058D01*
X77897Y-77114D01*
X77897Y-77283D01*
X77869Y-77339D01*
X77841Y-77367D01*
X77784Y-77395D01*
X77672Y-77395D01*
X77616Y-77367D01*
X78150Y-77002D02*
X78150Y-77395D01*
X78150Y-77058D02*
X78178Y-77030D01*
X78234Y-77002D01*
X78319Y-77002D01*
X78375Y-77030D01*
X78403Y-77086D01*
X78403Y-77395D01*
X78909Y-77367D02*
X78853Y-77395D01*
X78741Y-77395D01*
X78684Y-77367D01*
X78656Y-77311D01*
X78656Y-77086D01*
X78684Y-77030D01*
X78741Y-77002D01*
X78853Y-77002D01*
X78909Y-77030D01*
X78937Y-77086D01*
X78937Y-77142D01*
X78656Y-77199D01*
X79134Y-77002D02*
X79247Y-77395D01*
X79359Y-77114D01*
X79472Y-77395D01*
X79584Y-77002D01*
X80428Y-77620D02*
X80400Y-77592D01*
X80343Y-77508D01*
X80315Y-77452D01*
X80287Y-77367D01*
X80259Y-77227D01*
X80259Y-77114D01*
X80287Y-76974D01*
X80315Y-76889D01*
X80343Y-76833D01*
X80400Y-76749D01*
X80428Y-76721D01*
X80625Y-76861D02*
X80653Y-76833D01*
X80709Y-76805D01*
X80850Y-76805D01*
X80906Y-76833D01*
X80934Y-76861D01*
X80962Y-76917D01*
X80962Y-76974D01*
X80934Y-77058D01*
X80597Y-77395D01*
X80962Y-77395D01*
X81328Y-76805D02*
X81384Y-76805D01*
X81440Y-76833D01*
X81468Y-76861D01*
X81496Y-76917D01*
X81525Y-77030D01*
X81525Y-77171D01*
X81496Y-77283D01*
X81468Y-77339D01*
X81440Y-77367D01*
X81384Y-77395D01*
X81328Y-77395D01*
X81271Y-77367D01*
X81243Y-77339D01*
X81215Y-77283D01*
X81187Y-77171D01*
X81187Y-77030D01*
X81215Y-76917D01*
X81243Y-76861D01*
X81271Y-76833D01*
X81328Y-76805D01*
X82087Y-77395D02*
X81750Y-77395D01*
X81918Y-77395D02*
X81918Y-76805D01*
X81862Y-76889D01*
X81806Y-76946D01*
X81750Y-76974D01*
X82284Y-76805D02*
X82649Y-76805D01*
X82453Y-77030D01*
X82537Y-77030D01*
X82593Y-77058D01*
X82621Y-77086D01*
X82649Y-77142D01*
X82649Y-77283D01*
X82621Y-77339D01*
X82593Y-77367D01*
X82537Y-77395D01*
X82368Y-77395D01*
X82312Y-77367D01*
X82284Y-77339D01*
X82903Y-77171D02*
X83352Y-77171D01*
X83943Y-77395D02*
X83606Y-77395D01*
X83774Y-77395D02*
X83774Y-76805D01*
X83718Y-76889D01*
X83662Y-76946D01*
X83606Y-76974D01*
X84505Y-77395D02*
X84168Y-77395D01*
X84337Y-77395D02*
X84337Y-76805D01*
X84280Y-76889D01*
X84224Y-76946D01*
X84168Y-76974D01*
X84759Y-77171D02*
X85208Y-77171D01*
X85799Y-77395D02*
X85462Y-77395D01*
X85630Y-77395D02*
X85630Y-76805D01*
X85574Y-76889D01*
X85518Y-76946D01*
X85462Y-76974D01*
X86080Y-77395D02*
X86193Y-77395D01*
X86249Y-77367D01*
X86277Y-77339D01*
X86333Y-77255D01*
X86361Y-77142D01*
X86361Y-76917D01*
X86333Y-76861D01*
X86305Y-76833D01*
X86249Y-76805D01*
X86136Y-76805D01*
X86080Y-76833D01*
X86052Y-76861D01*
X86024Y-76917D01*
X86024Y-77058D01*
X86052Y-77114D01*
X86080Y-77142D01*
X86136Y-77171D01*
X86249Y-77171D01*
X86305Y-77142D01*
X86333Y-77114D01*
X86361Y-77058D01*
X87261Y-77086D02*
X87346Y-77114D01*
X87374Y-77142D01*
X87402Y-77199D01*
X87402Y-77283D01*
X87374Y-77339D01*
X87346Y-77367D01*
X87289Y-77395D01*
X87064Y-77395D01*
X87064Y-76805D01*
X87261Y-76805D01*
X87318Y-76833D01*
X87346Y-76861D01*
X87374Y-76917D01*
X87374Y-76974D01*
X87346Y-77030D01*
X87318Y-77058D01*
X87261Y-77086D01*
X87064Y-77086D01*
X87599Y-76805D02*
X87992Y-76805D01*
X87599Y-77395D01*
X87992Y-77395D01*
X88555Y-77395D02*
X88358Y-77114D01*
X88217Y-77395D02*
X88217Y-76805D01*
X88442Y-76805D01*
X88499Y-76833D01*
X88527Y-76861D01*
X88555Y-76917D01*
X88555Y-77002D01*
X88527Y-77058D01*
X88499Y-77086D01*
X88442Y-77114D01*
X88217Y-77114D01*
X89511Y-77002D02*
X89511Y-77395D01*
X89370Y-76777D02*
X89230Y-77199D01*
X89595Y-77199D01*
X90073Y-77002D02*
X90073Y-77395D01*
X89933Y-76777D02*
X89792Y-77199D01*
X90158Y-77199D01*
X90411Y-77395D02*
X90523Y-77395D01*
X90580Y-77367D01*
X90608Y-77339D01*
X90664Y-77255D01*
X90692Y-77142D01*
X90692Y-76917D01*
X90664Y-76861D01*
X90636Y-76833D01*
X90580Y-76805D01*
X90467Y-76805D01*
X90411Y-76833D01*
X90383Y-76861D01*
X90355Y-76917D01*
X90355Y-77058D01*
X90383Y-77114D01*
X90411Y-77142D01*
X90467Y-77171D01*
X90580Y-77171D01*
X90636Y-77142D01*
X90664Y-77114D01*
X90692Y-77058D01*
X91255Y-77395D02*
X90917Y-77395D01*
X91086Y-77395D02*
X91086Y-76805D01*
X91030Y-76889D01*
X90973Y-76946D01*
X90917Y-76974D01*
X91451Y-77620D02*
X91480Y-77592D01*
X91536Y-77508D01*
X91564Y-77452D01*
X91592Y-77367D01*
X91620Y-77227D01*
X91620Y-77114D01*
X91592Y-76974D01*
X91564Y-76889D01*
X91536Y-76833D01*
X91480Y-76749D01*
X91451Y-76721D01*
X91901Y-77171D02*
X92351Y-77171D01*
X92633Y-77002D02*
X92633Y-77592D01*
X92633Y-77030D02*
X92689Y-77002D01*
X92801Y-77002D01*
X92858Y-77030D01*
X92886Y-77058D01*
X92914Y-77114D01*
X92914Y-77283D01*
X92886Y-77339D01*
X92858Y-77367D01*
X92801Y-77395D01*
X92689Y-77395D01*
X92633Y-77367D01*
X93167Y-77395D02*
X93167Y-77002D01*
X93167Y-77114D02*
X93195Y-77058D01*
X93223Y-77030D01*
X93279Y-77002D01*
X93336Y-77002D01*
X93617Y-77395D02*
X93561Y-77367D01*
X93532Y-77339D01*
X93504Y-77283D01*
X93504Y-77114D01*
X93532Y-77058D01*
X93561Y-77030D01*
X93617Y-77002D01*
X93701Y-77002D01*
X93757Y-77030D01*
X93786Y-77058D01*
X93814Y-77114D01*
X93814Y-77283D01*
X93786Y-77339D01*
X93757Y-77367D01*
X93701Y-77395D01*
X93617Y-77395D01*
X94320Y-77395D02*
X94320Y-76805D01*
X94320Y-77367D02*
X94264Y-77395D01*
X94151Y-77395D01*
X94095Y-77367D01*
X94067Y-77339D01*
X94039Y-77283D01*
X94039Y-77114D01*
X94067Y-77058D01*
X94095Y-77030D01*
X94151Y-77002D01*
X94264Y-77002D01*
X94320Y-77030D01*
X94854Y-77002D02*
X94854Y-77395D01*
X94601Y-77002D02*
X94601Y-77311D01*
X94629Y-77367D01*
X94685Y-77395D01*
X94770Y-77395D01*
X94826Y-77367D01*
X94854Y-77339D01*
X95388Y-77367D02*
X95332Y-77395D01*
X95220Y-77395D01*
X95163Y-77367D01*
X95135Y-77339D01*
X95107Y-77283D01*
X95107Y-77114D01*
X95135Y-77058D01*
X95163Y-77030D01*
X95220Y-77002D01*
X95332Y-77002D01*
X95388Y-77030D01*
X95557Y-77002D02*
X95782Y-77002D01*
X95642Y-76805D02*
X95642Y-77311D01*
X95670Y-77367D01*
X95726Y-77395D01*
X95782Y-77395D01*
X69685Y-75396D02*
X112205Y-75396D01*
G54D11*
X104022Y-76293D02*
X103825Y-76012D01*
X103684Y-76293D02*
X103684Y-75703D01*
X103909Y-75703D01*
X103965Y-75731D01*
X103994Y-75759D01*
X104022Y-75815D01*
X104022Y-75899D01*
X103994Y-75956D01*
X103965Y-75984D01*
X103909Y-76012D01*
X103684Y-76012D01*
X104500Y-76265D02*
X104444Y-76293D01*
X104331Y-76293D01*
X104275Y-76265D01*
X104247Y-76209D01*
X104247Y-75984D01*
X104275Y-75928D01*
X104331Y-75899D01*
X104444Y-75899D01*
X104500Y-75928D01*
X104528Y-75984D01*
X104528Y-76040D01*
X104247Y-76096D01*
X104725Y-75899D02*
X104865Y-76293D01*
X105006Y-75899D01*
X105231Y-76237D02*
X105259Y-76265D01*
X105231Y-76293D01*
X105203Y-76265D01*
X105231Y-76237D01*
X105231Y-76293D01*
X105231Y-75928D02*
X105259Y-75956D01*
X105231Y-75984D01*
X105203Y-75956D01*
X105231Y-75928D01*
X105231Y-75984D01*
X105906Y-75703D02*
X106271Y-75703D01*
X106075Y-75928D01*
X106159Y-75928D01*
X106215Y-75956D01*
X106243Y-75984D01*
X106271Y-76040D01*
X106271Y-76181D01*
X106243Y-76237D01*
X106215Y-76265D01*
X106159Y-76293D01*
X105990Y-76293D01*
X105934Y-76265D01*
X105906Y-76237D01*
G54D10*
X70192Y-76265D02*
X70276Y-76293D01*
X70417Y-76293D01*
X70473Y-76265D01*
X70501Y-76237D01*
X70529Y-76181D01*
X70529Y-76124D01*
X70501Y-76068D01*
X70473Y-76040D01*
X70417Y-76012D01*
X70304Y-75984D01*
X70248Y-75956D01*
X70220Y-75928D01*
X70192Y-75871D01*
X70192Y-75815D01*
X70220Y-75759D01*
X70248Y-75731D01*
X70304Y-75703D01*
X70445Y-75703D01*
X70529Y-75731D01*
X70782Y-76293D02*
X70782Y-75899D01*
X70782Y-75703D02*
X70754Y-75731D01*
X70782Y-75759D01*
X70810Y-75731D01*
X70782Y-75703D01*
X70782Y-75759D01*
X71007Y-75899D02*
X71316Y-75899D01*
X71007Y-76293D01*
X71316Y-76293D01*
X71766Y-76265D02*
X71710Y-76293D01*
X71598Y-76293D01*
X71541Y-76265D01*
X71513Y-76209D01*
X71513Y-75984D01*
X71541Y-75928D01*
X71598Y-75899D01*
X71710Y-75899D01*
X71766Y-75928D01*
X71795Y-75984D01*
X71795Y-76040D01*
X71513Y-76096D01*
X72048Y-76237D02*
X72076Y-76265D01*
X72048Y-76293D01*
X72019Y-76265D01*
X72048Y-76237D01*
X72048Y-76293D01*
X72048Y-75928D02*
X72076Y-75956D01*
X72048Y-75984D01*
X72019Y-75956D01*
X72048Y-75928D01*
X72048Y-75984D01*
X72751Y-76124D02*
X73032Y-76124D01*
X72694Y-76293D02*
X72891Y-75703D01*
X73088Y-76293D01*
X73538Y-75899D02*
X73538Y-76293D01*
X73397Y-75674D02*
X73257Y-76096D01*
X73622Y-76096D01*
X103684Y-77395D02*
X103684Y-76805D01*
X104219Y-77395D02*
X104219Y-76805D01*
X104219Y-77367D02*
X104162Y-77395D01*
X104050Y-77395D01*
X103994Y-77367D01*
X103965Y-77339D01*
X103937Y-77283D01*
X103937Y-77114D01*
X103965Y-77058D01*
X103994Y-77030D01*
X104050Y-77002D01*
X104162Y-77002D01*
X104219Y-77030D01*
X104500Y-77339D02*
X104528Y-77367D01*
X104500Y-77395D01*
X104472Y-77367D01*
X104500Y-77339D01*
X104500Y-77395D01*
X104500Y-77030D02*
X104528Y-77058D01*
X104500Y-77086D01*
X104472Y-77058D01*
X104500Y-77030D01*
X104500Y-77086D01*
X105540Y-77395D02*
X105203Y-77395D01*
X105372Y-77395D02*
X105372Y-76805D01*
X105315Y-76889D01*
X105259Y-76946D01*
X105203Y-76974D01*
X106215Y-76777D02*
X105709Y-77536D01*
X106721Y-77395D02*
X106384Y-77395D01*
X106553Y-77395D02*
X106553Y-76805D01*
X106496Y-76889D01*
X106440Y-76946D01*
X106384Y-76974D01*
X69685Y-73821D02*
X112205Y-73821D01*
G54D12*
X70257Y-74099D02*
X70707Y-74099D01*
X70384Y-74886D02*
X70482Y-74099D01*
X70871Y-74886D02*
X70937Y-74361D01*
X70970Y-74099D02*
X70927Y-74136D01*
X70960Y-74174D01*
X71002Y-74136D01*
X70970Y-74099D01*
X70960Y-74174D01*
X71199Y-74361D02*
X71499Y-74361D01*
X71345Y-74099D02*
X71260Y-74774D01*
X71288Y-74849D01*
X71359Y-74886D01*
X71434Y-74886D01*
X71809Y-74886D02*
X71738Y-74849D01*
X71710Y-74774D01*
X71795Y-74099D01*
X72413Y-74849D02*
X72334Y-74886D01*
X72184Y-74886D01*
X72113Y-74849D01*
X72085Y-74774D01*
X72123Y-74474D01*
X72169Y-74399D01*
X72249Y-74361D01*
X72399Y-74361D01*
X72469Y-74399D01*
X72498Y-74474D01*
X72488Y-74549D01*
X72104Y-74624D01*
X72793Y-74811D02*
X72826Y-74849D01*
X72783Y-74886D01*
X72751Y-74849D01*
X72793Y-74811D01*
X72783Y-74886D01*
X72844Y-74399D02*
X72877Y-74436D01*
X72835Y-74474D01*
X72802Y-74436D01*
X72844Y-74399D01*
X72835Y-74474D01*
X73726Y-74849D02*
X73833Y-74886D01*
X74021Y-74886D01*
X74100Y-74849D01*
X74143Y-74811D01*
X74190Y-74736D01*
X74199Y-74661D01*
X74171Y-74586D01*
X74138Y-74549D01*
X74068Y-74511D01*
X73922Y-74474D01*
X73852Y-74436D01*
X73819Y-74399D01*
X73791Y-74324D01*
X73801Y-74249D01*
X73847Y-74174D01*
X73890Y-74136D01*
X73969Y-74099D01*
X74157Y-74099D01*
X74265Y-74136D01*
X74813Y-74849D02*
X74733Y-74886D01*
X74583Y-74886D01*
X74513Y-74849D01*
X74485Y-74774D01*
X74522Y-74474D01*
X74569Y-74399D01*
X74649Y-74361D01*
X74799Y-74361D01*
X74869Y-74399D01*
X74897Y-74474D01*
X74888Y-74549D01*
X74504Y-74624D01*
X75249Y-74361D02*
X75183Y-74886D01*
X75239Y-74436D02*
X75282Y-74399D01*
X75361Y-74361D01*
X75474Y-74361D01*
X75544Y-74399D01*
X75572Y-74474D01*
X75521Y-74886D01*
X75863Y-74849D02*
X75933Y-74886D01*
X76083Y-74886D01*
X76163Y-74849D01*
X76210Y-74774D01*
X76214Y-74736D01*
X76186Y-74661D01*
X76116Y-74624D01*
X76003Y-74624D01*
X75933Y-74586D01*
X75905Y-74511D01*
X75910Y-74474D01*
X75956Y-74399D01*
X76036Y-74361D01*
X76149Y-74361D01*
X76219Y-74399D01*
X76645Y-74886D02*
X76575Y-74849D01*
X76542Y-74811D01*
X76514Y-74736D01*
X76542Y-74511D01*
X76589Y-74436D01*
X76631Y-74399D01*
X76711Y-74361D01*
X76824Y-74361D01*
X76894Y-74399D01*
X76927Y-74436D01*
X76955Y-74511D01*
X76927Y-74736D01*
X76880Y-74811D01*
X76838Y-74849D01*
X76758Y-74886D01*
X76645Y-74886D01*
X77245Y-74886D02*
X77311Y-74361D01*
X77292Y-74511D02*
X77339Y-74436D01*
X77381Y-74399D01*
X77461Y-74361D01*
X77536Y-74361D01*
X77733Y-74886D02*
X77831Y-74099D01*
X78183Y-74886D01*
X78281Y-74099D01*
X78670Y-74886D02*
X78600Y-74849D01*
X78567Y-74811D01*
X78539Y-74736D01*
X78567Y-74511D01*
X78614Y-74436D01*
X78656Y-74399D01*
X78736Y-74361D01*
X78848Y-74361D01*
X78919Y-74399D01*
X78951Y-74436D01*
X78980Y-74511D01*
X78951Y-74736D01*
X78905Y-74811D01*
X78862Y-74849D01*
X78783Y-74886D01*
X78670Y-74886D01*
X79608Y-74886D02*
X79706Y-74099D01*
X79612Y-74849D02*
X79533Y-74886D01*
X79383Y-74886D01*
X79312Y-74849D01*
X79280Y-74811D01*
X79251Y-74736D01*
X79280Y-74511D01*
X79326Y-74436D01*
X79369Y-74399D01*
X79448Y-74361D01*
X79598Y-74361D01*
X79669Y-74399D01*
X80287Y-74849D02*
X80208Y-74886D01*
X80058Y-74886D01*
X79987Y-74849D01*
X79959Y-74774D01*
X79997Y-74474D01*
X80043Y-74399D01*
X80123Y-74361D01*
X80273Y-74361D01*
X80343Y-74399D01*
X80372Y-74474D01*
X80362Y-74549D01*
X79978Y-74624D01*
G54D10*
X70417Y-73070D02*
X70220Y-73070D01*
X70220Y-73380D02*
X70220Y-72789D01*
X70501Y-72789D01*
X70726Y-73380D02*
X70726Y-72986D01*
X70726Y-72789D02*
X70698Y-72817D01*
X70726Y-72845D01*
X70754Y-72817D01*
X70726Y-72789D01*
X70726Y-72845D01*
X71091Y-73380D02*
X71035Y-73352D01*
X71007Y-73295D01*
X71007Y-72789D01*
X71541Y-73352D02*
X71485Y-73380D01*
X71373Y-73380D01*
X71316Y-73352D01*
X71288Y-73295D01*
X71288Y-73070D01*
X71316Y-73014D01*
X71373Y-72986D01*
X71485Y-72986D01*
X71541Y-73014D01*
X71570Y-73070D01*
X71570Y-73127D01*
X71288Y-73183D01*
X71823Y-73323D02*
X71851Y-73352D01*
X71823Y-73380D01*
X71795Y-73352D01*
X71823Y-73323D01*
X71823Y-73380D01*
X71823Y-73014D02*
X71851Y-73042D01*
X71823Y-73070D01*
X71795Y-73042D01*
X71823Y-73014D01*
X71823Y-73070D01*
X72526Y-73352D02*
X72610Y-73380D01*
X72751Y-73380D01*
X72807Y-73352D01*
X72835Y-73323D01*
X72863Y-73267D01*
X72863Y-73211D01*
X72835Y-73155D01*
X72807Y-73127D01*
X72751Y-73099D01*
X72638Y-73070D01*
X72582Y-73042D01*
X72554Y-73014D01*
X72526Y-72958D01*
X72526Y-72902D01*
X72554Y-72845D01*
X72582Y-72817D01*
X72638Y-72789D01*
X72779Y-72789D01*
X72863Y-72817D01*
X73341Y-73352D02*
X73285Y-73380D01*
X73172Y-73380D01*
X73116Y-73352D01*
X73088Y-73295D01*
X73088Y-73070D01*
X73116Y-73014D01*
X73172Y-72986D01*
X73285Y-72986D01*
X73341Y-73014D01*
X73369Y-73070D01*
X73369Y-73127D01*
X73088Y-73183D01*
X73622Y-72986D02*
X73622Y-73380D01*
X73622Y-73042D02*
X73651Y-73014D01*
X73707Y-72986D01*
X73791Y-72986D01*
X73847Y-73014D01*
X73876Y-73070D01*
X73876Y-73380D01*
X74129Y-73352D02*
X74185Y-73380D01*
X74297Y-73380D01*
X74354Y-73352D01*
X74382Y-73295D01*
X74382Y-73267D01*
X74354Y-73211D01*
X74297Y-73183D01*
X74213Y-73183D01*
X74157Y-73155D01*
X74129Y-73099D01*
X74129Y-73070D01*
X74157Y-73014D01*
X74213Y-72986D01*
X74297Y-72986D01*
X74354Y-73014D01*
X74719Y-73380D02*
X74663Y-73352D01*
X74635Y-73323D01*
X74607Y-73267D01*
X74607Y-73099D01*
X74635Y-73042D01*
X74663Y-73014D01*
X74719Y-72986D01*
X74804Y-72986D01*
X74860Y-73014D01*
X74888Y-73042D01*
X74916Y-73099D01*
X74916Y-73267D01*
X74888Y-73323D01*
X74860Y-73352D01*
X74804Y-73380D01*
X74719Y-73380D01*
X75169Y-73380D02*
X75169Y-72986D01*
X75169Y-73099D02*
X75197Y-73042D01*
X75225Y-73014D01*
X75282Y-72986D01*
X75338Y-72986D01*
X75647Y-72789D02*
X75760Y-72789D01*
X75816Y-72817D01*
X75872Y-72874D01*
X75900Y-72986D01*
X75900Y-73183D01*
X75872Y-73295D01*
X75816Y-73352D01*
X75760Y-73380D01*
X75647Y-73380D01*
X75591Y-73352D01*
X75535Y-73295D01*
X75507Y-73183D01*
X75507Y-72986D01*
X75535Y-72874D01*
X75591Y-72817D01*
X75647Y-72789D01*
X76153Y-72986D02*
X76153Y-73380D01*
X76153Y-73042D02*
X76181Y-73014D01*
X76238Y-72986D01*
X76322Y-72986D01*
X76378Y-73014D01*
X76406Y-73070D01*
X76406Y-73380D01*
X76913Y-73352D02*
X76856Y-73380D01*
X76744Y-73380D01*
X76688Y-73352D01*
X76660Y-73295D01*
X76660Y-73070D01*
X76688Y-73014D01*
X76744Y-72986D01*
X76856Y-72986D01*
X76913Y-73014D01*
X76941Y-73070D01*
X76941Y-73127D01*
X76660Y-73183D01*
X77194Y-73323D02*
X77222Y-73352D01*
X77194Y-73380D01*
X77166Y-73352D01*
X77194Y-73323D01*
X77194Y-73380D01*
X77475Y-73380D02*
X77475Y-72789D01*
X77531Y-73155D02*
X77700Y-73380D01*
X77700Y-72986D02*
X77475Y-73211D01*
X77953Y-73380D02*
X77953Y-72986D01*
X77953Y-72789D02*
X77925Y-72817D01*
X77953Y-72845D01*
X77981Y-72817D01*
X77953Y-72789D01*
X77953Y-72845D01*
X78487Y-73352D02*
X78431Y-73380D01*
X78319Y-73380D01*
X78262Y-73352D01*
X78234Y-73323D01*
X78206Y-73267D01*
X78206Y-73099D01*
X78234Y-73042D01*
X78262Y-73014D01*
X78319Y-72986D01*
X78431Y-72986D01*
X78487Y-73014D01*
X78994Y-73380D02*
X78994Y-73070D01*
X78965Y-73014D01*
X78909Y-72986D01*
X78797Y-72986D01*
X78741Y-73014D01*
X78994Y-73352D02*
X78937Y-73380D01*
X78797Y-73380D01*
X78741Y-73352D01*
X78712Y-73295D01*
X78712Y-73239D01*
X78741Y-73183D01*
X78797Y-73155D01*
X78937Y-73155D01*
X78994Y-73127D01*
X79528Y-73380D02*
X79528Y-72789D01*
X79528Y-73352D02*
X79472Y-73380D01*
X79359Y-73380D01*
X79303Y-73352D01*
X79275Y-73323D01*
X79247Y-73267D01*
X79247Y-73099D01*
X79275Y-73042D01*
X79303Y-73014D01*
X79359Y-72986D01*
X79472Y-72986D01*
X79528Y-73014D01*
X79669Y-73436D02*
X80118Y-73436D01*
X80259Y-72986D02*
X80259Y-73577D01*
X80259Y-73014D02*
X80315Y-72986D01*
X80428Y-72986D01*
X80484Y-73014D01*
X80512Y-73042D01*
X80540Y-73099D01*
X80540Y-73267D01*
X80512Y-73323D01*
X80484Y-73352D01*
X80428Y-73380D01*
X80315Y-73380D01*
X80259Y-73352D01*
X81046Y-73352D02*
X80990Y-73380D01*
X80878Y-73380D01*
X80822Y-73352D01*
X80793Y-73323D01*
X80765Y-73267D01*
X80765Y-73099D01*
X80793Y-73042D01*
X80822Y-73014D01*
X80878Y-72986D01*
X80990Y-72986D01*
X81046Y-73014D01*
X81300Y-73380D02*
X81300Y-72789D01*
X81300Y-73014D02*
X81356Y-72986D01*
X81468Y-72986D01*
X81525Y-73014D01*
X81553Y-73042D01*
X81581Y-73099D01*
X81581Y-73267D01*
X81553Y-73323D01*
X81525Y-73352D01*
X81468Y-73380D01*
X81356Y-73380D01*
X81300Y-73352D01*
X69685Y-71459D02*
X112205Y-71459D01*
X70192Y-72289D02*
X70276Y-72317D01*
X70417Y-72317D01*
X70473Y-72289D01*
X70501Y-72260D01*
X70529Y-72204D01*
X70529Y-72148D01*
X70501Y-72092D01*
X70473Y-72064D01*
X70417Y-72036D01*
X70304Y-72007D01*
X70248Y-71979D01*
X70220Y-71951D01*
X70192Y-71895D01*
X70192Y-71839D01*
X70220Y-71782D01*
X70248Y-71754D01*
X70304Y-71726D01*
X70445Y-71726D01*
X70529Y-71754D01*
X70782Y-72317D02*
X70782Y-71726D01*
X71035Y-72317D02*
X71035Y-72007D01*
X71007Y-71951D01*
X70951Y-71923D01*
X70867Y-71923D01*
X70810Y-71951D01*
X70782Y-71979D01*
X71541Y-72289D02*
X71485Y-72317D01*
X71373Y-72317D01*
X71316Y-72289D01*
X71288Y-72232D01*
X71288Y-72007D01*
X71316Y-71951D01*
X71373Y-71923D01*
X71485Y-71923D01*
X71541Y-71951D01*
X71570Y-72007D01*
X71570Y-72064D01*
X71288Y-72120D01*
X72048Y-72289D02*
X71991Y-72317D01*
X71879Y-72317D01*
X71823Y-72289D01*
X71795Y-72232D01*
X71795Y-72007D01*
X71823Y-71951D01*
X71879Y-71923D01*
X71991Y-71923D01*
X72048Y-71951D01*
X72076Y-72007D01*
X72076Y-72064D01*
X71795Y-72120D01*
X72244Y-71923D02*
X72469Y-71923D01*
X72329Y-71726D02*
X72329Y-72232D01*
X72357Y-72289D01*
X72413Y-72317D01*
X72469Y-72317D01*
X72666Y-72260D02*
X72694Y-72289D01*
X72666Y-72317D01*
X72638Y-72289D01*
X72666Y-72260D01*
X72666Y-72317D01*
X72666Y-71951D02*
X72694Y-71979D01*
X72666Y-72007D01*
X72638Y-71979D01*
X72666Y-71951D01*
X72666Y-72007D01*
G54D11*
X70473Y-71108D02*
X70417Y-71136D01*
X70304Y-71136D01*
X70248Y-71108D01*
X70220Y-71079D01*
X70192Y-71023D01*
X70192Y-70854D01*
X70220Y-70798D01*
X70248Y-70770D01*
X70304Y-70742D01*
X70417Y-70742D01*
X70473Y-70770D01*
X70979Y-71136D02*
X70979Y-70545D01*
X70979Y-71108D02*
X70923Y-71136D01*
X70810Y-71136D01*
X70754Y-71108D01*
X70726Y-71079D01*
X70698Y-71023D01*
X70698Y-70854D01*
X70726Y-70798D01*
X70754Y-70770D01*
X70810Y-70742D01*
X70923Y-70742D01*
X70979Y-70770D01*
X71513Y-71108D02*
X71457Y-71136D01*
X71345Y-71136D01*
X71288Y-71108D01*
X71260Y-71079D01*
X71232Y-71023D01*
X71232Y-70854D01*
X71260Y-70798D01*
X71288Y-70770D01*
X71345Y-70742D01*
X71457Y-70742D01*
X71513Y-70770D01*
G54D10*
X70135Y-69561D02*
X70360Y-69561D01*
X70220Y-69955D02*
X70220Y-69448D01*
X70248Y-69392D01*
X70304Y-69364D01*
X70360Y-69364D01*
X70557Y-69955D02*
X70557Y-69561D01*
X70557Y-69364D02*
X70529Y-69392D01*
X70557Y-69420D01*
X70585Y-69392D01*
X70557Y-69364D01*
X70557Y-69420D01*
X70782Y-69955D02*
X71091Y-69561D01*
X70782Y-69561D02*
X71091Y-69955D01*
X71541Y-69926D02*
X71485Y-69955D01*
X71373Y-69955D01*
X71316Y-69926D01*
X71288Y-69870D01*
X71288Y-69645D01*
X71316Y-69589D01*
X71373Y-69561D01*
X71485Y-69561D01*
X71541Y-69589D01*
X71570Y-69645D01*
X71570Y-69701D01*
X71288Y-69758D01*
X72076Y-69955D02*
X72076Y-69364D01*
X72076Y-69926D02*
X72019Y-69955D01*
X71907Y-69955D01*
X71851Y-69926D01*
X71823Y-69898D01*
X71795Y-69842D01*
X71795Y-69673D01*
X71823Y-69617D01*
X71851Y-69589D01*
X71907Y-69561D01*
X72019Y-69561D01*
X72076Y-69589D01*
X72779Y-69926D02*
X72835Y-69955D01*
X72947Y-69955D01*
X73004Y-69926D01*
X73032Y-69870D01*
X73032Y-69842D01*
X73004Y-69786D01*
X72947Y-69758D01*
X72863Y-69758D01*
X72807Y-69730D01*
X72779Y-69673D01*
X72779Y-69645D01*
X72807Y-69589D01*
X72863Y-69561D01*
X72947Y-69561D01*
X73004Y-69589D01*
X73229Y-69561D02*
X73341Y-69955D01*
X73454Y-69673D01*
X73566Y-69955D01*
X73679Y-69561D01*
X73904Y-69955D02*
X73904Y-69561D01*
X73904Y-69364D02*
X73876Y-69392D01*
X73904Y-69420D01*
X73932Y-69392D01*
X73904Y-69364D01*
X73904Y-69420D01*
X74100Y-69561D02*
X74325Y-69561D01*
X74185Y-69364D02*
X74185Y-69870D01*
X74213Y-69926D01*
X74269Y-69955D01*
X74325Y-69955D01*
X74775Y-69926D02*
X74719Y-69955D01*
X74607Y-69955D01*
X74550Y-69926D01*
X74522Y-69898D01*
X74494Y-69842D01*
X74494Y-69673D01*
X74522Y-69617D01*
X74550Y-69589D01*
X74607Y-69561D01*
X74719Y-69561D01*
X74775Y-69589D01*
X75028Y-69955D02*
X75028Y-69364D01*
X75282Y-69955D02*
X75282Y-69645D01*
X75253Y-69589D01*
X75197Y-69561D01*
X75113Y-69561D01*
X75057Y-69589D01*
X75028Y-69617D01*
X76266Y-69955D02*
X76266Y-69645D01*
X76238Y-69589D01*
X76181Y-69561D01*
X76069Y-69561D01*
X76013Y-69589D01*
X76266Y-69926D02*
X76210Y-69955D01*
X76069Y-69955D01*
X76013Y-69926D01*
X75985Y-69870D01*
X75985Y-69814D01*
X76013Y-69758D01*
X76069Y-69730D01*
X76210Y-69730D01*
X76266Y-69701D01*
X76547Y-69561D02*
X76547Y-69955D01*
X76547Y-69617D02*
X76575Y-69589D01*
X76631Y-69561D01*
X76716Y-69561D01*
X76772Y-69589D01*
X76800Y-69645D01*
X76800Y-69955D01*
X77334Y-69955D02*
X77334Y-69364D01*
X77334Y-69926D02*
X77278Y-69955D01*
X77166Y-69955D01*
X77109Y-69926D01*
X77081Y-69898D01*
X77053Y-69842D01*
X77053Y-69673D01*
X77081Y-69617D01*
X77109Y-69589D01*
X77166Y-69561D01*
X77278Y-69561D01*
X77334Y-69589D01*
X78066Y-69955D02*
X78066Y-69364D01*
X78066Y-69589D02*
X78122Y-69561D01*
X78234Y-69561D01*
X78291Y-69589D01*
X78319Y-69617D01*
X78347Y-69673D01*
X78347Y-69842D01*
X78319Y-69898D01*
X78291Y-69926D01*
X78234Y-69955D01*
X78122Y-69955D01*
X78066Y-69926D01*
X78853Y-69955D02*
X78853Y-69645D01*
X78825Y-69589D01*
X78769Y-69561D01*
X78656Y-69561D01*
X78600Y-69589D01*
X78853Y-69926D02*
X78797Y-69955D01*
X78656Y-69955D01*
X78600Y-69926D01*
X78572Y-69870D01*
X78572Y-69814D01*
X78600Y-69758D01*
X78656Y-69730D01*
X78797Y-69730D01*
X78853Y-69701D01*
X79050Y-69561D02*
X79275Y-69561D01*
X79134Y-69364D02*
X79134Y-69870D01*
X79162Y-69926D01*
X79219Y-69955D01*
X79275Y-69955D01*
X79387Y-69561D02*
X79612Y-69561D01*
X79472Y-69364D02*
X79472Y-69870D01*
X79500Y-69926D01*
X79556Y-69955D01*
X79612Y-69955D01*
X80034Y-69926D02*
X79978Y-69955D01*
X79865Y-69955D01*
X79809Y-69926D01*
X79781Y-69870D01*
X79781Y-69645D01*
X79809Y-69589D01*
X79865Y-69561D01*
X79978Y-69561D01*
X80034Y-69589D01*
X80062Y-69645D01*
X80062Y-69701D01*
X79781Y-69758D01*
X80315Y-69955D02*
X80315Y-69561D01*
X80315Y-69673D02*
X80343Y-69617D01*
X80372Y-69589D01*
X80428Y-69561D01*
X80484Y-69561D01*
X80625Y-69561D02*
X80765Y-69955D01*
X80906Y-69561D02*
X80765Y-69955D01*
X80709Y-70095D01*
X80681Y-70123D01*
X80625Y-70151D01*
X81496Y-69561D02*
X81721Y-69561D01*
X81581Y-69955D02*
X81581Y-69448D01*
X81609Y-69392D01*
X81665Y-69364D01*
X81721Y-69364D01*
X82003Y-69955D02*
X81946Y-69926D01*
X81918Y-69898D01*
X81890Y-69842D01*
X81890Y-69673D01*
X81918Y-69617D01*
X81946Y-69589D01*
X82003Y-69561D01*
X82087Y-69561D01*
X82143Y-69589D01*
X82171Y-69617D01*
X82199Y-69673D01*
X82199Y-69842D01*
X82171Y-69898D01*
X82143Y-69926D01*
X82087Y-69955D01*
X82003Y-69955D01*
X82537Y-69955D02*
X82481Y-69926D01*
X82453Y-69898D01*
X82424Y-69842D01*
X82424Y-69673D01*
X82453Y-69617D01*
X82481Y-69589D01*
X82537Y-69561D01*
X82621Y-69561D01*
X82678Y-69589D01*
X82706Y-69617D01*
X82734Y-69673D01*
X82734Y-69842D01*
X82706Y-69898D01*
X82678Y-69926D01*
X82621Y-69955D01*
X82537Y-69955D01*
X82903Y-69561D02*
X83127Y-69561D01*
X82987Y-69364D02*
X82987Y-69870D01*
X83015Y-69926D01*
X83071Y-69955D01*
X83127Y-69955D01*
X83324Y-69561D02*
X83324Y-70151D01*
X83324Y-69589D02*
X83381Y-69561D01*
X83493Y-69561D01*
X83549Y-69589D01*
X83577Y-69617D01*
X83606Y-69673D01*
X83606Y-69842D01*
X83577Y-69898D01*
X83549Y-69926D01*
X83493Y-69955D01*
X83381Y-69955D01*
X83324Y-69926D01*
X83859Y-69955D02*
X83859Y-69561D01*
X83859Y-69673D02*
X83887Y-69617D01*
X83915Y-69589D01*
X83971Y-69561D01*
X84027Y-69561D01*
X84224Y-69955D02*
X84224Y-69561D01*
X84224Y-69364D02*
X84196Y-69392D01*
X84224Y-69420D01*
X84252Y-69392D01*
X84224Y-69364D01*
X84224Y-69420D01*
X84505Y-69561D02*
X84505Y-69955D01*
X84505Y-69617D02*
X84534Y-69589D01*
X84590Y-69561D01*
X84674Y-69561D01*
X84730Y-69589D01*
X84759Y-69645D01*
X84759Y-69955D01*
X84955Y-69561D02*
X85180Y-69561D01*
X85040Y-69364D02*
X85040Y-69870D01*
X85068Y-69926D01*
X85124Y-69955D01*
X85180Y-69955D01*
X85349Y-69926D02*
X85405Y-69955D01*
X85518Y-69955D01*
X85574Y-69926D01*
X85602Y-69870D01*
X85602Y-69842D01*
X85574Y-69786D01*
X85518Y-69758D01*
X85433Y-69758D01*
X85377Y-69730D01*
X85349Y-69673D01*
X85349Y-69645D01*
X85377Y-69589D01*
X85433Y-69561D01*
X85518Y-69561D01*
X85574Y-69589D01*
X77559Y-75396D02*
X77559Y-76577D01*
X102756Y-75396D02*
X102756Y-77955D01*
G54D13*
X47629Y-21850D03*
G54D14*
X48629Y-21850D03*
G54D15*
X52460Y-13688D03*
X52460Y-12688D03*
X58956Y-13688D03*
X58956Y-12688D03*
X54322Y-19291D03*
X55322Y-19291D03*
X60322Y-15035D03*
X59322Y-15035D03*
X58322Y-15035D03*
X57322Y-15035D03*
X56322Y-15035D03*
X55322Y-15035D03*
X54322Y-15035D03*
X53322Y-15035D03*
X52322Y-15035D03*
X51322Y-15035D03*
X50322Y-15035D03*
X49322Y-15035D03*
X48322Y-15035D03*
G54D16*
X61322Y-15035D03*
G54D15*
X48322Y-18035D03*
X49322Y-18035D03*
X50322Y-18035D03*
X51322Y-18035D03*
X52322Y-18035D03*
X53322Y-18035D03*
X54322Y-18035D03*
X55322Y-18035D03*
X56322Y-18035D03*
X57322Y-18035D03*
X58322Y-18035D03*
X59322Y-18035D03*
X60322Y-18035D03*
X61322Y-18035D03*
G54D17*
X64476Y-17708D03*
G54D18*
X63476Y-17708D03*
X64476Y-16708D03*
X63476Y-16708D03*
X64476Y-15708D03*
X63476Y-15708D03*
X64476Y-14708D03*
X63476Y-14708D03*
G54D19*
X64484Y-24401D03*
G54D20*
X64484Y-25401D03*
X63484Y-24401D03*
X63484Y-25401D03*
X62484Y-24401D03*
X62484Y-25401D03*
G54D15*
X60326Y-22047D03*
X61326Y-22047D03*
G54D19*
X63476Y-21751D03*
G54D20*
X64476Y-21751D03*
G54D19*
X64476Y-22736D03*
G54D20*
X63476Y-22736D03*
G54D21*
X54846Y-13385D03*
X56768Y-13385D03*
G54D22*
X54250Y-24500D03*
G54D23*
X56250Y-24500D03*
G54D22*
X48250Y-24500D03*
G54D23*
X50250Y-24500D03*
X52250Y-24500D03*
G54D22*
X58250Y-24500D03*
G54D23*
X60250Y-24500D03*
G54D16*
X49917Y-13582D03*
G54D15*
X48917Y-13582D03*
X47917Y-13582D03*
G54D24*
X52471Y-19783D03*
X60433Y-19783D03*
G54D25*
X63476Y-21751D02*
X63476Y-22736D01*
X53322Y-17035D02*
X55322Y-15035D01*
X53322Y-18035D02*
X53322Y-17035D01*
X55322Y-18035D02*
X55322Y-19291D01*
X64476Y-17708D02*
X64476Y-17263D01*
X51453Y-19783D02*
X51331Y-19661D01*
X52471Y-19783D02*
X51453Y-19783D01*
X49142Y-21850D02*
X48629Y-21850D01*
X51331Y-19661D02*
X49142Y-21850D01*
X48250Y-24500D02*
X48250Y-23849D01*
X48629Y-23469D02*
X48250Y-23849D01*
X48629Y-21850D02*
X48629Y-23469D01*
X53684Y-15674D02*
X54322Y-15035D01*
X51882Y-15674D02*
X53684Y-15674D01*
X49889Y-17667D02*
X51882Y-15674D01*
X49889Y-18219D02*
X49889Y-17667D01*
X51331Y-19661D02*
X49889Y-18219D01*
X51882Y-13266D02*
X52460Y-12688D01*
X51882Y-15674D02*
X51882Y-13266D01*
X56669Y-12688D02*
X54322Y-15035D01*
X58956Y-12688D02*
X56669Y-12688D01*
X64392Y-17263D02*
X64476Y-17263D01*
X64030Y-16901D02*
X64392Y-17263D01*
X64030Y-15630D02*
X64030Y-16901D01*
X63664Y-15263D02*
X64030Y-15630D01*
X63228Y-15263D02*
X63664Y-15263D01*
X60654Y-12688D02*
X63228Y-15263D01*
X58956Y-12688D02*
X60654Y-12688D01*
X52460Y-14173D02*
X53322Y-15035D01*
X52460Y-13688D02*
X52460Y-14173D01*
X52761Y-15473D02*
X52322Y-15035D01*
X53493Y-15473D02*
X52761Y-15473D01*
X53822Y-15144D02*
X53493Y-15473D01*
X53822Y-14409D02*
X53822Y-15144D01*
X54846Y-13385D02*
X53822Y-14409D01*
X54322Y-18035D02*
X54322Y-19291D01*
X62484Y-23204D02*
X62484Y-24401D01*
X61326Y-22047D02*
X62484Y-23204D01*
X61752Y-21621D02*
X61326Y-22047D01*
X61752Y-15890D02*
X61752Y-21621D01*
X61322Y-15460D02*
X61752Y-15890D01*
X61322Y-15035D02*
X61322Y-15460D01*
X62992Y-24015D02*
X62829Y-23523D01*
X50960Y-17397D02*
X50322Y-18035D01*
X52569Y-17397D02*
X50960Y-17397D01*
X54893Y-15073D02*
X52569Y-17397D01*
X54893Y-14863D02*
X54893Y-15073D01*
X55149Y-14607D02*
X54893Y-14863D01*
X61683Y-14607D02*
X55149Y-14607D01*
X63130Y-16054D02*
X61683Y-14607D01*
X61952Y-17232D02*
X63130Y-16054D01*
X61952Y-20742D02*
X61952Y-17232D01*
X62829Y-21619D02*
X61952Y-20742D01*
X63026Y-24943D02*
X62992Y-24015D01*
X62829Y-23523D02*
X62829Y-21619D01*
X63484Y-25401D02*
X63026Y-24943D01*
X63130Y-16054D02*
X63476Y-15708D01*
X63949Y-23935D02*
X63484Y-24401D01*
X63949Y-21227D02*
X63949Y-23935D01*
X64926Y-20250D02*
X63949Y-21227D01*
X64926Y-16159D02*
X64926Y-20250D01*
X64476Y-15708D02*
X64926Y-16159D01*
X57822Y-15535D02*
X58322Y-15035D01*
X57822Y-22927D02*
X57822Y-15535D01*
X56250Y-24500D02*
X57822Y-22927D01*
X53822Y-17535D02*
X56322Y-15035D01*
X53822Y-20927D02*
X53822Y-17535D01*
X50250Y-24500D02*
X53822Y-20927D01*
X64476Y-22736D02*
X64476Y-21751D01*
X65127Y-21002D02*
X64476Y-21751D01*
X65127Y-15715D02*
X65127Y-21002D01*
X64620Y-15208D02*
X65127Y-15715D01*
X64340Y-15208D02*
X64620Y-15208D01*
X64030Y-14899D02*
X64340Y-15208D01*
X64030Y-14607D02*
X64030Y-14899D01*
X61686Y-12263D02*
X64030Y-14607D01*
X51661Y-12263D02*
X61686Y-12263D01*
X50342Y-13582D02*
X51661Y-12263D01*
X49917Y-13582D02*
X50342Y-13582D01*
M02*
