M48
;DRILL file {Pcbnew (2013-11-19 BZR 4491)-product} date Thu 21 Nov 2013 01:10:27 GMT
;FORMAT={-:-/ absolute / metric / decimal}
FMAT,2
METRIC,TZ
T1C0.600
T2C0.800
T3C0.813
T4C1.016
T5C1.524
T6C3.000
%
G90
G05
M71
T1
X161.23Y-37.36
X161.23Y-39.9
X161.23Y-42.44
X161.23Y-44.98
X163.77Y-37.36
X163.77Y-39.9
X163.77Y-42.44
X163.77Y-44.98
T2
X120.98Y-55.5
X123.52Y-55.5
X139.309Y-34.
X144.191Y-34.
T3
X121.71Y-34.5
X122.74Y-38.19
X122.74Y-45.81
X124.25Y-34.5
X125.28Y-38.19
X125.28Y-45.81
X126.79Y-34.5
X127.82Y-38.19
X127.82Y-45.81
X130.36Y-38.19
X130.36Y-45.81
X132.9Y-38.19
X132.9Y-45.81
X133.25Y-32.23
X133.25Y-34.77
X135.44Y-38.19
X135.44Y-45.81
X137.98Y-38.19
X137.98Y-45.81
X137.98Y-49.
X140.52Y-38.19
X140.52Y-45.81
X140.52Y-49.
X143.06Y-38.19
X143.06Y-45.81
X145.6Y-38.19
X145.6Y-45.81
X148.14Y-38.19
X148.14Y-45.81
X149.75Y-32.23
X149.75Y-34.77
X150.68Y-38.19
X150.68Y-45.81
X153.22Y-38.19
X153.22Y-45.81
X153.23Y-56.
X155.76Y-38.19
X155.76Y-45.81
X155.77Y-56.
T4
X133.277Y-50.25
X153.5Y-50.25
X158.71Y-61.98
X158.71Y-64.52
X161.23Y-55.25
X161.23Y-57.75
X161.25Y-61.98
X161.25Y-64.52
X163.77Y-55.25
X163.77Y-57.75
X163.79Y-61.98
X163.79Y-64.52
T5
X122.555Y-62.23
X127.635Y-62.23
X132.715Y-62.23
X137.795Y-62.23
X142.875Y-62.23
X147.955Y-62.23
X153.035Y-62.23
T6
X125.Y-50.25
X161.Y-50.25
T0
M30
